<svg width="815" height="534" viewBox="0 0 815 534" fill="none" xmlns="http://www.w3.org/2000/svg">
<path fill-rule="evenodd" clip-rule="evenodd" d="M484.377 383.553C508.52 397.27 536.443 405.104 566.196 405.104C610.335 405.104 650.448 387.863 680.166 359.748C694.375 371.162 712.423 377.991 732.066 377.991C777.869 377.991 815 340.859 815 295.056C815 249.252 777.869 212.121 732.066 212.121C731.33 212.121 730.596 212.131 729.865 212.15C716.936 133.426 648.58 73.3653 566.196 73.3653C561.855 73.3653 557.552 73.5321 553.295 73.8596C517.197 28.8316 461.73 0 399.53 0C314.202 0 241.547 54.257 214.182 130.153C191.445 109.72 161.373 97.2887 128.397 97.2887C57.4896 97.2887 0.0078125 154.771 0.0078125 225.678C0.0078125 296.585 57.4896 354.067 128.397 354.067C139.348 354.067 149.978 352.696 160.126 350.116C193.388 392.179 262.032 421.053 341.316 421.053C397.165 421.053 447.735 406.725 484.377 383.553ZM55.6581 397.576C57.0658 395.201 56.2812 392.133 53.9056 390.726C51.53 389.318 48.4629 390.102 47.0551 392.478L30.594 420.256C29.1862 422.632 29.9708 425.699 32.3464 427.107C34.722 428.515 37.7891 427.73 39.1969 425.354L55.6581 397.576ZM737.406 404.034C738.813 401.658 738.029 398.591 735.653 397.184C733.278 395.776 730.211 396.56 728.803 398.936L712.342 426.714C710.934 429.09 711.718 432.157 714.094 433.565C716.47 434.972 719.537 434.188 720.944 431.812L737.406 404.034ZM203.986 423.408C205.394 421.032 204.609 417.965 202.233 416.557C199.858 415.149 196.791 415.934 195.383 418.31L178.922 446.088C177.514 448.463 178.299 451.531 180.674 452.938C183.05 454.346 186.117 453.561 187.525 451.186L203.986 423.408ZM656.037 453.114C657.444 450.738 656.66 447.671 654.284 446.263C651.908 444.856 648.841 445.64 647.434 448.016L630.972 475.794C629.565 478.17 630.349 481.237 632.725 482.644C635.101 484.052 638.168 483.268 639.575 480.892L656.037 453.114ZM105.826 503.485C107.234 501.109 106.45 498.042 104.074 496.635C101.698 495.227 98.6312 496.011 97.2234 498.387L80.7623 526.165C79.3545 528.541 80.1391 531.608 82.5147 533.016C84.8903 534.424 87.9574 533.639 89.3652 531.263L105.826 503.485Z" fill="white" fill-opacity="0.5"/>
</svg>
