<svg width="42" height="42" viewBox="0 0 42 42" fill="none" xmlns="http://www.w3.org/2000/svg">
<path d="M14.9619 18.4625C14.9619 18.9266 14.7775 19.3717 14.4494 19.6999C14.1212 20.0281 13.676 20.2125 13.2119 20.2125C12.7478 20.2125 12.3027 20.0281 11.9745 19.6999C11.6463 19.3717 11.4619 18.9266 11.4619 18.4625C11.4619 17.9984 11.6463 17.5533 11.9745 17.2251C12.3027 16.8969 12.7478 16.7125 13.2119 16.7125C13.676 16.7125 14.1212 16.8969 14.4494 17.2251C14.7775 17.5533 14.9619 17.9984 14.9619 18.4625V18.4625Z" fill="#FFF"/>
<path d="M18.4619 20.2125C18.926 20.2125 19.3712 20.0281 19.6994 19.6999C20.0275 19.3717 20.2119 18.9266 20.2119 18.4625C20.2119 17.9984 20.0275 17.5533 19.6994 17.2251C19.3712 16.8969 18.926 16.7125 18.4619 16.7125C17.9978 16.7125 17.5527 16.8969 17.2245 17.2251C16.8963 17.5533 16.7119 17.9984 16.7119 18.4625C16.7119 18.9266 16.8963 19.3717 17.2245 19.6999C17.5527 20.0281 17.9978 20.2125 18.4619 20.2125V20.2125Z" fill="#FFF"/>
<path d="M23.7119 20.2125C24.176 20.2125 24.6212 20.0281 24.9494 19.6999C25.2775 19.3717 25.4619 18.9266 25.4619 18.4625C25.4619 17.9984 25.2775 17.5533 24.9494 17.2251C24.6212 16.8969 24.176 16.7125 23.7119 16.7125C23.2478 16.7125 22.8027 16.8969 22.4745 17.2251C22.1463 17.5533 21.9619 17.9984 21.9619 18.4625C21.9619 18.9266 22.1463 19.3717 22.4745 19.6999C22.8027 20.0281 23.2478 20.2125 23.7119 20.2125V20.2125Z" fill="#FFF"/>
<path fill-rule="evenodd" clip-rule="evenodd" d="M28.3619 8.56275C30.7739 10.9746 32.2225 14.1839 32.4358 17.5882C32.6491 20.9924 31.6124 24.3575 29.5204 27.0515C29.5484 27.0743 29.5729 27.0988 29.5991 27.125L37.0244 34.5502C37.3432 34.8803 37.5196 35.3224 37.5156 35.7812C37.5116 36.24 37.3275 36.679 37.0031 37.0034C36.6786 37.3279 36.2397 37.5119 35.7808 37.5159C35.322 37.5199 34.88 37.3435 34.5499 37.0247L27.1246 29.5995C27.0993 29.5741 27.0748 29.5478 27.0511 29.5207C24.2378 31.703 20.6987 32.7314 17.154 32.3969C13.6092 32.0623 10.325 30.39 7.96959 27.7199C5.61414 25.0499 4.36435 21.5828 4.47448 18.024C4.5846 14.4652 6.04637 11.082 8.5624 8.56275C9.86243 7.26265 11.4058 6.23136 13.1044 5.52775C14.803 4.82413 16.6236 4.46199 18.4621 4.46199C20.3007 4.46199 22.1213 4.82413 23.8199 5.52775C25.5185 6.23136 27.0619 7.26265 28.3619 8.56275ZM11.0369 25.8878C12.0119 26.8628 13.1694 27.6364 14.4433 28.1641C15.7172 28.6919 17.0826 28.9636 18.4615 28.9636C19.8404 28.9637 21.2059 28.6922 22.4799 28.1646C23.7538 27.637 24.9114 26.8636 25.8865 25.8886C26.8616 24.9136 27.6351 23.7561 28.1629 22.4822C28.6907 21.2083 28.9623 19.8429 28.9624 18.464C28.9625 17.0851 28.691 15.7197 28.1634 14.4457C27.6358 13.1717 26.8624 12.0141 25.8874 11.039C23.9129 9.09636 21.2507 8.01265 18.4807 8.02393C15.7108 8.03521 13.0575 9.14056 11.0989 11.0992C9.14021 13.0579 8.03485 15.7111 8.02357 18.4811C8.01229 21.251 9.096 23.9132 11.0386 25.8878H11.0369Z" fill="#FFF"/>
</svg>
