<svg width="92" height="49" viewBox="0 0 92 49" fill="none" xmlns="http://www.w3.org/2000/svg">
<path d="M36.2897 46.5666H78.5946C84.5594 46.5666 89.3947 41.7312 89.3947 35.7665V35.7665C89.3947 29.8017 84.5594 24.9664 78.5946 24.9664H13.9832C7.91733 24.9664 3 20.049 3 13.9832V13.9832C3 7.91734 7.91734 3.00001 13.9832 3.00001H36.2897" stroke="#309CFF" stroke-width="3.69208" stroke-linecap="round"/>
<path d="M14.5854 20.3388C12.5902 20.3388 10.9213 19.68 9.57864 18.3625C8.24852 17.0449 7.58346 15.4011 7.58346 13.431C7.58346 11.4484 8.24852 9.79827 9.57864 8.4807C10.9213 7.15059 12.5902 6.48553 14.5854 6.48553C16.317 6.48553 17.7915 7.00628 19.0086 8.04779C20.2384 9.08929 20.985 10.4445 21.2485 12.1134H17.5781C17.4276 11.6617 17.208 11.2727 16.9194 10.9464C16.6308 10.6076 16.2857 10.3441 15.8841 10.1559C15.4826 9.96767 15.0559 9.87356 14.6042 9.87356C13.6631 9.87356 12.8851 10.2124 12.2702 10.89C11.6679 11.555 11.3668 12.402 11.3668 13.431C11.3668 14.096 11.5048 14.6984 11.7809 15.2379C12.0569 15.765 12.4396 16.1791 12.929 16.4802C13.4309 16.7814 13.9893 16.932 14.6042 16.932C15.081 16.932 15.5202 16.8316 15.9218 16.6308C16.3359 16.43 16.6809 16.1477 16.957 15.7838C17.2456 15.4199 17.4527 14.9995 17.5781 14.5227H21.2862C21.0352 16.2543 20.2948 17.6598 19.0651 18.7389C17.8354 19.8055 16.3421 20.3388 14.5854 20.3388ZM31.2594 20L30.5253 17.8542H25.8573L25.1233 20H21.2459L26.422 6.82433H29.9606L35.2497 20H31.2594ZM29.6406 15.0121L28.1913 10.9276L26.742 15.0121H29.6406ZM44.1177 6.82433H47.7881V20H44.1177V14.9368H40.165V20H36.5135V6.82433H40.165V11.5864H44.1177V6.82433ZM60.2179 6.82433V10.0994H56.6228V20H52.9901V10.0994H49.4139V6.82433H60.2179ZM65.4567 16.8567H70.4258V20H61.8428V6.82433H70.2752V9.96767H65.4567V11.9064H69.7858V14.8803H65.4567V16.8567ZM83.8157 20H79.6936L77.529 15.9532L75.3456 20H71.2235L75.1762 13.1487L71.4494 6.82433H75.5339L77.5102 10.5512L79.5054 6.82433H83.5522L79.8442 13.2051L83.8157 20Z" fill="#309CFF"/>
<path d="M22.2799 28.8243H33.3098V42H29.6206V32.1371H25.9503V42H22.2799V28.8243ZM41.4543 28.8243C42.8597 28.8243 44.0204 29.2761 44.9364 30.1795C45.865 31.0705 46.3293 32.2061 46.3293 33.5864C46.3293 34.9667 45.865 36.1086 44.9364 37.0121C44.0079 37.9155 42.8472 38.3673 41.4543 38.3673H39.478V42H35.8452V28.8243H41.4543ZM41.0214 35.1863C41.4857 35.1863 41.8621 35.042 42.1507 34.7534C42.4519 34.4522 42.6025 34.0632 42.6025 33.5864C42.6025 33.2852 42.5335 33.0155 42.3954 32.777C42.2699 32.5261 42.088 32.3316 41.8496 32.1935C41.6112 32.0555 41.3351 31.9865 41.0214 31.9865H39.478V35.1863H41.0214ZM54.5459 42.3388C52.4252 42.3388 50.681 41.6926 49.3132 40.4001C47.958 39.0951 47.2804 37.4324 47.2804 35.4122C47.2804 33.3919 47.958 31.7355 49.3132 30.4431C50.681 29.138 52.4252 28.4855 54.5459 28.4855C56.654 28.4855 58.3856 29.138 59.7408 30.4431C61.0961 31.7355 61.7737 33.3919 61.7737 35.4122C61.7737 37.4324 61.0961 39.0951 59.7408 40.4001C58.3856 41.6926 56.654 42.3388 54.5459 42.3388ZM52.0425 37.9532C52.7075 38.6182 53.542 38.9508 54.5459 38.9508C55.5497 38.9508 56.3716 38.6182 57.0116 37.9532C57.6641 37.2881 57.9904 36.4411 57.9904 35.4122C57.9904 34.3832 57.6641 33.5362 57.0116 32.8711C56.3716 32.2061 55.5497 31.8736 54.5459 31.8736C53.542 31.8736 52.7075 32.2061 52.0425 32.8711C51.39 33.5362 51.0637 34.3832 51.0637 35.4122C51.0637 36.4411 51.39 37.2881 52.0425 37.9532ZM80.1856 42H76.5341L75.4988 34.4146L72.0167 42.0188H70.9438L67.4429 34.4146L66.4265 42H62.7561L64.7513 28.8243H68.3652L71.4709 35.9957L74.5954 28.8243H78.2281L80.1856 42Z" fill="#FF6635"/>
</svg>
