<svg width="41" height="46" viewBox="0 0 41 46" fill="none" xmlns="http://www.w3.org/2000/svg">
    <path d="M26.6766 7.07313L37.7051 22.3185C42.2496 28.6007 40.8409 37.3776 34.5587 41.9221C28.2765 46.4666 19.4997 45.0579 14.9552 38.7757L3.92675 23.5303C-0.617767 17.2481 0.790894 8.4713 7.0731 3.92678C13.3553 -0.61774 22.1321 0.790932 26.6766 7.07313Z"
          stroke="#FF542F"/>
    <path d="M16.8531 22.8722C17.1367 23.6369 17.4677 24.3832 17.8442 25.1067C18.287 25.9572 18.7924 26.7735 19.3564 27.5489C20.2963 28.6766 21.6112 29.3161 22.8389 29.6781C23.1769 29.0968 23.6733 28.6236 24.2702 28.3137L25.014 27.9265C26.3486 27.2316 27.9939 27.7503 28.6887 29.0849L31.1641 33.8393C31.6273 34.7291 31.2816 35.8259 30.3918 36.2892L29.5754 36.7142C28.3283 37.3635 26.9133 37.354 25.7259 36.8129C22.2035 35.8817 18.829 33.3683 16.2711 29.8577C16.1636 29.7227 16.0598 29.5848 15.96 29.4441L15.9712 29.4362C15.4038 28.6191 14.8889 27.7669 14.4295 26.8845C13.9823 26.0255 13.5918 25.1432 13.2587 24.2491L13.2558 24.2502C13.2408 24.2082 13.2272 24.1663 13.2129 24.1243C12.5696 22.3666 12.1521 20.565 11.9887 18.803C11.7387 16.1058 12.0808 13.5514 12.9779 11.4158C13.3278 10.3798 14.0618 9.47184 15.1082 8.927L15.9246 8.50195C16.8144 8.03872 17.9112 8.38444 18.3744 9.27422L20.8498 14.0287C21.5447 15.3633 21.026 17.0085 19.6914 17.7034L18.9476 18.0907C18.3502 18.4026 17.6762 18.5378 17.0047 18.4804C16.5676 19.7825 16.3363 21.3511 16.8531 22.8722V22.8722Z"
          fill="#FF542F"/>
</svg>
