<svg width="97" height="97" viewBox="0 0 97 97" fill="none" xmlns="http://www.w3.org/2000/svg">
    <path d="M55.7756 4.84961C61.2732 4.84833 66.6755 6.2847 71.4464 9.01619C76.2174 11.7477 80.1911 15.6793 82.9732 20.4209C85.7553 25.1625 87.2491 30.5492 87.3063 36.0464C87.3635 41.5437 85.9822 46.9603 83.2994 51.7588L87.1552 61.8565C87.4761 62.6959 87.5575 63.6079 87.3903 64.4909C87.2231 65.3739 86.8139 66.193 86.2083 66.857C85.6027 67.5209 84.8245 68.0035 83.9606 68.251C83.0967 68.4985 82.181 68.5011 81.3158 68.2585L69.2538 64.8781C64.981 66.8969 60.309 67.9293 55.5834 67.899C50.8577 67.8686 46.1994 66.7761 41.9529 64.7025C37.7064 62.6288 33.9805 59.627 31.0507 55.919C28.1209 52.2111 26.0622 47.8919 25.0269 43.2809C23.9916 38.67 24.0062 33.8853 25.0696 29.2808C26.133 24.6762 28.218 20.3697 31.1704 16.6797C34.1227 12.9897 37.8669 10.0106 42.1259 7.96289C46.385 5.91517 51.0499 4.85118 55.7756 4.84961V4.84961ZM82.4507 36.3746C82.4485 30.5615 80.5475 24.9083 77.0369 20.275C73.5263 15.6417 68.5982 12.282 63.0026 10.7071C57.4069 9.13224 51.4499 9.42833 46.038 11.5504C40.6261 13.6724 36.0556 17.5042 33.0217 22.4628C29.9879 27.4214 28.6568 33.2353 29.2312 39.0199C29.8055 44.8045 32.2537 50.2432 36.2033 54.5085C40.1529 58.7737 45.3877 61.632 51.1112 62.6485C56.8347 63.665 62.7336 62.784 67.9103 60.1396L68.7542 59.7031L82.6253 63.588L77.9256 51.2884L78.5464 50.2699C81.1065 46.0877 82.4579 41.2781 82.4507 36.3746V36.3746Z"
          fill="white"/>
    <path d="M41.4038 82.4501C45.9419 82.4551 50.4272 81.4781 54.552 79.586C58.6768 77.694 62.3433 74.9318 65.2998 71.4891C62.5693 72.2311 59.7078 72.6579 56.7638 72.7355C52.2712 75.9087 46.9041 77.6085 41.4038 77.6001C37.0291 77.6001 32.9066 76.5476 29.2691 74.6901L28.4252 74.2536L14.5542 78.1384L19.2539 65.8388L18.6331 64.8203C16.1596 60.7754 14.7288 56.0224 14.7288 50.9251C14.7213 45.5394 16.3519 40.2788 19.4042 35.8416C19.4439 32.9563 19.8265 30.086 20.544 27.291C17.1883 30.2458 14.5013 33.8822 12.6622 37.9577C10.8231 42.0331 9.87424 46.4539 9.87884 50.9251C9.87884 56.5074 11.3338 61.7551 13.8849 66.3093L10.0243 76.407C9.70391 77.2459 9.6227 78.1573 9.78974 79.0397C9.95679 79.922 10.3655 80.7407 10.9704 81.4044C11.5754 82.0682 12.3527 82.5509 13.2158 82.7989C14.0789 83.0469 14.9939 83.0504 15.8589 82.809L27.9257 79.4285C32.0142 81.3685 36.5878 82.4501 41.4087 82.4501H41.4038Z"
          fill="white"/>
    <path d="M53.264 19.008C53.264 18.304 53.488 17.712 53.936 17.232C54.416 16.752 55.008 16.512 55.712 16.512C56.416 16.512 56.992 16.752 57.44 17.232C57.92 17.712 58.16 18.304 58.16 19.008V42.672C58.16 43.344 57.904 43.92 57.392 44.4C56.912 44.88 56.352 45.12 55.712 45.12C55.04 45.12 54.464 44.88 53.984 44.4C53.504 43.92 53.264 43.344 53.264 42.672V19.008ZM55.712 47.328C56.608 47.328 57.376 47.664 58.016 48.336C58.688 48.976 59.024 49.76 59.024 50.688C59.024 51.616 58.688 52.4 58.016 53.04C57.376 53.68 56.608 54 55.712 54C54.816 54 54.032 53.68 53.36 53.04C52.72 52.4 52.4 51.616 52.4 50.688C52.4 49.76 52.72 48.976 53.36 48.336C54.032 47.664 54.816 47.328 55.712 47.328Z"
          fill="white"/>
</svg>
