<svg width="85" height="85" viewBox="0 0 85 85" fill="none" xmlns="http://www.w3.org/2000/svg">
    <path d="M34.6245 0.250001C28.6736 0.248613 22.8257 1.80345 17.6613 4.76022C12.4969 7.71698 8.19544 11.9729 5.18388 17.1055C2.17232 22.2382 0.555327 28.0692 0.49338 34.0198C0.431434 39.9704 1.92669 45.8338 4.83074 51.028L0.656993 61.9585C0.309595 62.8671 0.221473 63.8544 0.402458 64.8102C0.583443 65.7659 1.02642 66.6527 1.68196 67.3714C2.33751 68.0901 3.17984 68.6125 4.115 68.8804C5.05015 69.1483 6.04134 69.1511 6.97799 68.8885L20.0347 65.2292C24.6599 67.4146 29.7173 68.5322 34.8326 68.4993C39.948 68.4664 44.9906 67.2839 49.5873 65.0392C54.184 62.7945 58.2172 59.5451 61.3886 55.5313C64.5601 51.5176 66.7885 46.8422 67.9092 41.8509C69.0299 36.8597 69.0141 31.6804 67.863 26.6961C66.7119 21.7118 64.4549 17.0501 61.2591 13.0557C58.0632 9.06139 54.0102 5.83665 49.3999 3.62005C44.7896 1.40344 39.74 0.251697 34.6245 0.250001V0.250001ZM34.5877 20.7302C32.7082 21.0977 30.6502 22.3157 29.0332 25.1717C28.8629 25.4717 28.6353 25.7351 28.3632 25.947C28.0911 26.1589 27.7799 26.3151 27.4474 26.4068C27.1149 26.4984 26.7677 26.5237 26.4254 26.4812C26.0832 26.4386 25.7526 26.329 25.4527 26.1587C25.1528 25.9885 24.8894 25.7608 24.6775 25.4887C24.4656 25.2166 24.3093 24.9054 24.2177 24.5729C24.126 24.2404 24.1008 23.8932 24.1433 23.5509C24.1859 23.2087 24.2955 22.8782 24.4657 22.5782C26.781 18.5042 30.0727 16.2625 33.5797 15.58C36.8429 14.9637 40.2177 15.6436 42.9877 17.4753C45.5287 19.1553 47.5815 21.901 47.6445 25.1927C47.7127 28.6315 45.6232 31.7342 41.7697 34.0127C39.1552 35.5562 38.1367 36.6062 37.701 37.3045C37.3335 37.8925 37.2495 38.428 37.2495 39.625C37.2495 40.3212 36.9729 40.9889 36.4806 41.4812C35.9884 41.9734 35.3207 42.25 34.6245 42.25C33.9283 42.25 33.2606 41.9734 32.7683 41.4812C32.2761 40.9889 31.9995 40.3212 31.9995 39.625C31.9995 38.197 32.073 36.4225 33.2437 34.5325C34.3462 32.7632 36.231 31.1882 39.0975 29.4925C41.9062 27.8282 42.4155 26.248 42.3997 25.303C42.3735 24.2162 41.6542 22.888 40.0897 21.8537C38.4699 20.7821 36.498 20.3795 34.5877 20.7302V20.7302ZM35.937 55.375C34.8927 55.375 33.8912 54.9601 33.1528 54.2217C32.4143 53.4833 31.9995 52.4818 31.9995 51.4375C31.9995 50.3932 32.4143 49.3917 33.1528 48.6533C33.8912 47.9148 34.8927 47.5 35.937 47.5C36.9813 47.5 37.9828 47.9148 38.7212 48.6533C39.4596 49.3917 39.8745 50.3932 39.8745 51.4375C39.8745 52.4818 39.4596 53.4833 38.7212 54.2217C37.9828 54.9601 36.9813 55.375 35.937 55.375Z"
          fill="white"/>
    <path d="M24.3145 72.3843C27.5148 76.111 31.4837 79.101 35.9487 81.149C40.4137 83.1971 45.2689 84.2547 50.1812 84.2493C55.3945 84.2493 60.3452 83.0785 64.7762 80.9785L77.833 84.6378C78.7693 84.8991 79.7598 84.8953 80.6941 84.6269C81.6284 84.3584 82.4698 83.8359 83.1246 83.1174C83.7794 82.3989 84.2218 81.5127 84.4027 80.5576C84.5835 79.6025 84.4956 78.6159 84.1487 77.7078L79.9697 66.7773C82.7312 61.8475 84.3062 56.167 84.3062 50.1243C84.3062 39.9393 79.8437 30.7938 72.7615 24.541C73.528 27.502 73.9532 30.6048 73.9952 33.7915C77.1872 38.4378 79.0562 44.0658 79.0562 50.1243C79.0562 55.6368 77.5127 60.787 74.83 65.1708L74.158 66.2733L79.2505 79.582L64.2355 75.382L63.3167 75.844C59.3792 77.86 54.9167 78.9993 50.1812 78.9993C44.2274 79.0084 38.4176 77.1684 33.5545 73.7335C30.4318 73.6519 27.33 73.199 24.3145 72.3843V72.3843Z"
          fill="white"/>
</svg>
