<svg width="90" height="85" viewBox="0 0 90 85" fill="none" xmlns="http://www.w3.org/2000/svg">
<path d="M73.125 79.6875H30.9375C29.4461 79.6861 28.0162 79.1259 26.9617 78.13C25.9071 77.134 25.314 75.7835 25.3125 74.375V58.4375H30.9375V74.375H73.125V15.9375H47.8125V10.625H73.125C74.6164 10.6264 76.0463 11.1866 77.1008 12.1825C78.1554 13.1785 78.7485 14.529 78.75 15.9375V74.375C78.7485 75.7835 78.1554 77.134 77.1008 78.13C76.0463 79.1259 74.6164 79.6861 73.125 79.6875Z" fill="white"/>
<path d="M47.8125 26.5625H67.5V31.875H47.8125V26.5625Z" fill="white"/>
<path d="M45 39.8438H67.5V45.1562H45V39.8438Z" fill="white"/>
<path d="M42.1875 53.125H67.5V58.4375H42.1875V53.125Z" fill="white"/>
<path d="M25.3125 50.4688C21.584 50.4652 18.0093 49.0648 15.3729 46.5749C12.7365 44.0849 11.2537 40.7088 11.25 37.1875V7.96875H16.875V37.1875C16.875 39.3009 17.7639 41.3278 19.3463 42.8223C20.9286 44.3167 23.0747 45.1562 25.3125 45.1562C27.5503 45.1562 29.6964 44.3167 31.2787 42.8223C32.8611 41.3278 33.75 39.3009 33.75 37.1875V13.2812C33.75 12.5768 33.4537 11.9011 32.9262 11.403C32.3988 10.9049 31.6834 10.625 30.9375 10.625C30.1916 10.625 29.4762 10.9049 28.9488 11.403C28.4213 11.9011 28.125 12.5768 28.125 13.2812V39.8438H22.5V13.2812C22.5 11.1678 23.3889 9.14092 24.9713 7.64649C26.5536 6.15206 28.6997 5.3125 30.9375 5.3125C33.1753 5.3125 35.3214 6.15206 36.9037 7.64649C38.4861 9.14092 39.375 11.1678 39.375 13.2812V37.1875C39.3713 40.7088 37.8885 44.0849 35.2521 46.5749C32.6157 49.0648 29.041 50.4652 25.3125 50.4688Z" fill="white"/>
</svg>
