<svg width="70" height="70" viewBox="0 0 70 70" fill="none" xmlns="http://www.w3.org/2000/svg">
    <path d="M66.7323 50.2295H65.8126V36.918C65.8126 36.3638 65.3633 35.9144 64.8089 35.9144C64.2545 35.9144 63.8053 36.3638 63.8053 36.918V51.233V55.7612V60.254C63.8053 61.9093 62.4586 63.2558 60.8035 63.2558C59.1482 63.2558 57.8018 61.9093 57.8018 60.254V9.74586C57.8018 8.0906 59.1484 6.74406 60.8035 6.74406C62.4587 6.74406 63.8053 8.0906 63.8053 9.74586V14.2387V18.7668V32.134C63.8053 32.6882 64.2545 33.1376 64.8089 33.1376C65.3633 33.1376 65.8126 32.6882 65.8126 32.134V19.7704H66.7323C68.5341 19.7704 70 18.3045 70 16.5026C70 14.7008 68.534 13.2349 66.7323 13.2349H65.8126V9.74586C65.8126 6.98386 63.5656 4.73689 60.8035 4.73689C59.1678 4.73689 57.7128 5.52521 56.7982 6.74174C55.8834 5.52521 54.4286 4.73689 52.7929 4.73689C51.1571 4.73689 49.7022 5.52521 48.7875 6.74174C47.8728 5.52521 46.4179 4.73689 44.7822 4.73689C43.1464 4.73689 41.6914 5.52521 40.7768 6.74174C39.8621 5.52521 38.4072 4.73689 36.7715 4.73689C35.1358 4.73689 33.6808 5.52521 32.7662 6.74174C31.8514 5.52521 30.3965 4.73689 28.7608 4.73689C27.1251 4.73689 25.6702 5.52521 24.7555 6.74174C23.8407 5.52521 22.3858 4.73689 20.7501 4.73689C17.9882 4.73689 15.7411 6.984 15.7411 9.74586V13.2351H13.6932V7.17472C13.6932 5.83037 12.5996 4.73676 11.2552 4.73676H2.43824C1.09361 4.73676 0 5.83051 0 7.17472V52.4461C0 53.0004 0.449258 53.4498 1.00365 53.4498C1.55805 53.4498 2.0073 53.0004 2.0073 52.4461V7.17472C2.0073 6.93724 2.20063 6.74406 2.43797 6.74406H11.255C11.4924 6.74406 11.6856 6.93724 11.6856 7.17472V14.2386V18.7667V51.2329V55.761V62.8249C11.6856 63.0623 11.4923 63.2555 11.255 63.2555H2.43797C2.20049 63.2555 2.0073 63.0623 2.0073 62.8249V57.2243C2.0073 56.6701 1.55805 56.2207 1.00365 56.2207C0.449258 56.2207 0 56.6703 0 57.2247V62.8253C0 64.1696 1.09361 65.2632 2.43797 65.2632H11.255C12.5993 65.2632 13.6929 64.1696 13.6929 62.8253V56.7649H15.7408V60.2541C15.7408 63.0161 17.9879 65.2631 20.7498 65.2631C22.3856 65.2631 23.8406 64.4748 24.7553 63.2583C25.6699 64.4748 27.1249 65.2631 28.7606 65.2631C30.3963 65.2631 31.8512 64.4748 32.7659 63.2583C33.6807 64.4748 35.1355 65.2631 36.7712 65.2631C38.4069 65.2631 39.8619 64.4748 40.7765 63.2583C41.6913 64.4748 43.1463 65.2631 44.782 65.2631C46.4177 65.2631 47.8726 64.4748 48.7873 63.2583C49.702 64.4748 51.1569 65.2631 52.7926 65.2631C54.4283 65.2631 55.8832 64.4748 56.7979 63.2583C57.7127 64.4748 59.1675 65.2631 60.8032 65.2631C63.5652 65.2631 65.8123 63.016 65.8123 60.2541V56.7649H66.732C68.5338 56.7649 69.9997 55.299 69.9997 53.4972C69.9997 51.6954 68.534 50.2295 66.7323 50.2295ZM65.8124 15.2424H66.7321C67.4272 15.2424 67.9927 15.8078 67.9927 16.5028C67.9927 17.1979 67.4272 17.7632 66.7321 17.7632H65.8124V15.2424ZM15.7408 54.7576H13.6929V52.2367H15.7408V54.7576ZM15.7408 50.2295H13.6929V19.7705H15.7408V50.2295ZM15.7408 17.7633H13.6929V15.2424H15.7408V17.7633ZM23.7516 60.2541C23.7516 61.9094 22.4049 63.2559 20.7498 63.2559C19.0946 63.2559 17.7481 61.9094 17.7481 60.2541V55.7613V51.2332V18.7668V14.2387V9.74586C17.7481 8.0906 19.0947 6.74406 20.7498 6.74406C22.4051 6.74406 23.7516 8.0906 23.7516 9.74586V60.2541V60.2541ZM31.7622 60.2541C31.7622 61.9094 30.4157 63.2559 28.7606 63.2559C27.1053 63.2559 25.7589 61.9094 25.7589 60.2541V9.74586C25.7589 8.0906 27.1055 6.74406 28.7606 6.74406C30.4158 6.74406 31.7622 8.0906 31.7622 9.74586V60.2541V60.2541ZM36.7713 63.2559C35.1162 63.2559 33.7695 61.9094 33.7695 60.2541V9.74586C33.7695 8.0906 35.1161 6.74406 36.7712 6.74406C38.4263 6.74406 39.7729 8.0906 39.7729 9.74586V60.2541H39.773C39.773 61.9094 38.4264 63.2559 36.7713 63.2559ZM47.7837 60.2541C47.7837 61.9094 46.4372 63.2559 44.7821 63.2559C43.127 63.2559 41.7803 61.9094 41.7803 60.2541V9.74586C41.7803 8.0906 43.127 6.74406 44.7821 6.74406C46.4372 6.74406 47.7837 8.0906 47.7837 9.74586V60.2541ZM55.7944 60.2541C55.7944 61.9094 54.4478 63.2559 52.7927 63.2559C51.1375 63.2559 49.7911 61.9094 49.7911 60.2541V9.74586C49.7911 8.0906 51.1376 6.74406 52.7927 6.74406C54.448 6.74406 55.7944 8.0906 55.7944 9.74586V60.2541ZM66.7323 54.7576H65.8126V52.2367H66.7323C67.4274 52.2367 67.9928 52.8022 67.9928 53.4971C67.9928 54.192 67.4274 54.7576 66.7323 54.7576Z"
          fill="#FF542F"/>
    <path d="M9.0927 9.31055H4.60012C3.72813 9.31055 3.01883 10.02 3.01883 10.892V15.3844C3.01883 16.2564 3.72813 16.9658 4.60012 16.9658H9.0927C9.96469 16.9658 10.674 16.2564 10.674 15.3844V10.892C10.674 10.02 9.96469 9.31055 9.0927 9.31055ZM8.66668 14.9585H5.026V11.3177H8.66668V14.9585V14.9585Z"
          fill="#FF542F"/>
</svg>
