<svg width="70" height="70" viewBox="0 0 70 70" fill="none" xmlns="http://www.w3.org/2000/svg">
    <path d="M65.8704 25.6653H64.5168C64.0397 24.3375 62.748 23.4477 61.2974 23.4477C59.8469 23.4477 58.5553 24.3375 58.078 25.6653H54.438V14.3788C55.8078 13.9163 56.7256 12.6641 56.7256 11.258C56.7256 9.85184 55.8078 8.59976 54.438 8.1371V6.82496C54.438 4.98879 52.9024 3.50022 51.0083 3.50022H35.0027C33.1085 3.50022 31.5729 4.98879 31.5729 6.82496V8.1371C30.2032 8.59965 29.2853 9.85184 29.2853 11.258C29.2853 12.6641 30.2032 13.9161 31.5729 14.3788V25.6653H26.7895C26.3124 24.3375 25.0207 23.4477 23.5701 23.4477C22.1196 23.4477 20.8279 24.3375 20.3507 25.6653H17.8539V23.072C21.415 21.0738 23.5966 17.3773 23.569 13.3886C23.5414 9.39993 21.3087 5.73231 17.7202 3.78052C17.0388 3.40393 16.2023 3.40667 15.5235 3.78777C14.8447 4.16886 14.4261 4.87098 14.4241 5.6313V11.258C14.4273 11.8639 14.172 12.4443 13.7187 12.8616C13.2618 13.2789 12.6506 13.4999 12.0233 13.4745C10.7679 13.3462 9.82338 12.3064 9.85113 11.0828V5.63141C9.85464 4.88119 9.44611 4.18587 8.77879 3.8061C8.09923 3.41249 7.25443 3.40151 6.56434 3.77734C2.97118 5.71595 0.731815 9.37863 0.702141 13.3649C0.672467 17.3511 2.85747 21.0447 6.42141 23.0332V50.4625C2.85554 52.4513 0.669749 56.1465 0.700329 60.1344C0.730909 64.1223 2.97299 67.7856 6.56887 69.7229C7.25907 70.093 8.10002 70.08 8.77766 69.6886C9.44509 69.3092 9.85396 68.6144 9.85113 67.8644V62.4128C9.82157 61.1935 10.759 60.1548 12.0096 60.0212C12.6379 59.9871 13.253 60.2054 13.7099 60.6248C14.1668 61.0443 14.4252 61.6277 14.4242 62.2377V67.8666C14.4198 68.6245 14.8359 69.3263 15.5138 69.7041C16.1909 70.0926 17.0312 70.099 17.7145 69.7206C21.3064 67.7707 23.5424 64.1021 23.5712 60.1115C23.6 56.1208 21.4173 52.4222 17.8539 50.4237V47.8304H20.3496C20.8268 49.1582 22.1185 50.048 23.569 50.048C25.0195 50.048 26.3111 49.1582 26.7884 47.8304H36.3403C37.2513 47.8334 38.1257 47.4821 38.7674 46.8551L40.0467 45.6139H49.658C50.1414 46.9394 51.4328 47.8269 52.8831 47.8304H58.0779C58.5551 49.1582 59.8468 50.048 61.2973 50.048C62.7478 50.048 64.0396 49.1582 64.5167 47.8304H65.8703C67.7644 47.8304 69.3 46.3418 69.3 44.5056V28.99C69.3001 27.1539 67.7646 25.6653 65.8704 25.6653ZM33.8594 6.82496C33.8594 6.21287 34.3712 5.71671 35.0027 5.71671H51.0082C51.6396 5.71671 52.1514 6.21287 52.1514 6.82496V7.93321H33.8594V6.82496ZM32.7162 10.1497H53.2946C53.9261 10.1497 54.4379 10.6459 54.4379 11.258C54.4379 11.8701 53.9261 12.3662 53.2946 12.3662H32.7162C32.0848 12.3662 31.5729 11.8701 31.5729 11.258C31.5729 10.646 32.0848 10.1497 32.7162 10.1497ZM33.8594 14.5828H52.1514V25.6654H33.8594V14.5828ZM21.2838 60.0212C21.2854 63.1954 19.543 66.1303 16.7108 67.7236V62.2377C16.7126 61.0198 16.1974 59.8547 15.2861 59.0162C14.3748 58.1777 13.1478 57.7395 11.8932 57.8047C9.41825 57.9853 7.519 60.0073 7.56487 62.4128V67.7214C4.6387 66.0831 2.88091 63.0159 2.99191 59.742C3.14186 56.494 5.08698 53.5768 8.08054 52.1105C8.46563 51.9219 8.70834 51.5392 8.70823 51.1209V22.3749C8.708 21.957 8.46529 21.5749 8.08054 21.3863C5.08744 19.9203 3.14232 17.0036 2.99191 13.756C2.88069 10.4819 4.63859 7.41466 7.56487 5.77655V11.0851C7.52433 13.4941 9.43048 15.5151 11.9092 15.6911C13.1611 15.7518 14.3839 15.3117 15.2917 14.4737C16.1993 13.6356 16.7124 12.4731 16.7109 11.2581V5.77436C19.63 7.41334 21.3843 10.4743 21.278 13.7427C21.1716 17.0111 19.2219 19.9588 16.2022 21.4163C15.8117 21.6044 15.5658 21.9912 15.5677 22.4138V51.0866C15.5658 51.5092 15.8119 51.896 16.2022 52.0841C19.3219 53.5703 21.2944 56.6512 21.2838 60.0212ZM17.8539 27.8818H20.1404V45.6139H17.8539V27.8818ZM23.5703 47.8305C22.9388 47.8305 22.427 47.3343 22.427 46.7222V26.7735C22.427 26.1614 22.9388 25.6653 23.5703 25.6653C24.2017 25.6653 24.7135 26.1614 24.7135 26.7735V46.7221C24.7135 47.3342 24.2016 47.8305 23.5703 47.8305ZM43.3255 39.7402L41.134 36.8997L46.4352 32.4833V37.5059C46.435 37.9432 46.5683 38.3708 46.8182 38.7349L48.788 41.6053L49.1573 43.3974H42.3298L43.1128 42.636C43.9102 41.8534 44.0005 40.6243 43.3255 39.7402ZM51.7616 44.7273L51.031 41.1809C50.9724 40.8955 50.8558 40.6242 50.6881 40.3829L48.7217 37.5059V32.1763C48.7275 31.3646 48.2389 30.6259 47.4755 30.2923C47.1931 30.1655 46.8859 30.0993 46.5746 30.0984C46.0645 30.0994 45.5718 30.2783 45.1867 30.6027L39.6443 35.2141C38.732 35.9762 38.5823 37.292 39.3013 38.2286L41.4953 41.0701L37.151 45.2892C36.9365 45.4983 36.6446 45.6152 36.3404 45.614H27.0001V27.8818H57.8678V45.6139H52.8833C52.3393 45.6145 51.8703 45.2438 51.7616 44.7273ZM61.2974 47.8305C60.666 47.8305 60.1542 47.3343 60.1542 46.7222V26.7735C60.1542 26.1614 60.666 25.6653 61.2974 25.6653C61.9289 25.6653 62.4407 26.1614 62.4407 26.7735V46.7221C62.4407 47.3342 61.9288 47.8305 61.2974 47.8305ZM67.0136 44.5056C67.0136 45.1177 66.5018 45.6139 65.8704 45.6139H64.7272V27.8818H65.8704C66.5018 27.8818 67.0136 28.3779 67.0136 28.99V44.5056Z"
          fill="#FF542F"/>
</svg>
