<svg width="70" height="70" viewBox="0 0 70 70" fill="none" xmlns="http://www.w3.org/2000/svg">
<g clip-path="url(#clip0)">
<path d="M66.3368 35.2658L64.6998 34.4632C64.7117 33.3069 64.6938 32.2565 64.6998 31.2676C64.6998 26.1797 63.3946 21.182 60.9202 16.7625C61.4986 15.9286 61.5273 14.8158 60.9406 13.9381C58.7661 10.6839 56.0377 7.89441 52.8314 5.64703C50.7314 4.17512 48.4572 2.96598 46.0722 2.05297C45.5432 1.85049 44.9504 2.11518 44.7479 2.644C44.5454 3.17297 44.8101 3.76578 45.3389 3.96826C47.567 4.82111 49.6919 5.95096 51.6543 7.32648C54.6518 9.42758 57.2026 12.0355 59.2354 15.0776C59.3637 15.2694 59.3336 15.5221 59.1642 15.6784C59.0088 15.8014 55.5844 19.0229 55.3772 19.1483C55.2731 19.2004 55.1726 19.1991 55.1134 19.1912C55.0298 19.1799 54.8738 19.1354 54.7679 18.9651C53.4216 16.8012 51.7408 14.8801 49.772 13.2546C45.6016 9.81148 40.3289 7.9152 34.9252 7.9152C29.243 7.9152 23.7634 9.98812 19.4953 13.7523C17.8153 15.2337 16.3584 16.9436 15.1648 18.8338C15.0663 18.9898 14.917 19.0282 14.8366 19.0371C14.7525 19.0467 14.5909 19.0416 14.452 18.9026L10.8917 15.3422C10.7331 15.1834 10.7108 14.9334 10.8388 14.7473C12.3483 12.5537 14.1501 10.5734 16.1942 8.86156C21.4393 4.46961 28.0915 2.05078 34.9253 2.05078C36.805 2.05078 38.6858 2.23125 40.5158 2.58727C41.0715 2.69541 41.6099 2.33242 41.7181 1.77652C41.8262 1.22063 41.4632 0.682363 40.9073 0.574219C38.9487 0.193184 36.9361 0 34.9253 0C27.6109 0 20.4911 2.58891 14.8776 7.28957C12.6913 9.12051 10.764 11.2387 9.14935 13.5851C8.53097 14.4838 8.56925 15.6625 9.20458 16.5149C8.1863 18.2617 7.34521 20.1027 6.70181 21.9991C6.51984 22.5354 6.80722 23.1176 7.34343 23.2996C7.45267 23.3367 7.56369 23.3542 7.67292 23.3542C8.10017 23.3542 8.49898 23.085 8.6439 22.658C9.18257 21.0703 9.87191 19.5245 10.6947 18.0455L12.8844 20.2353C11.1453 23.7155 10.2286 27.5901 10.2286 31.4981V52.8459L4.56613 50.0697C3.89908 49.7427 3.468 49.0514 3.468 48.3085V38.8683C3.468 38.1254 3.89908 37.4341 4.56613 37.1071C4.9123 36.922 5.6108 36.6174 6.18884 36.3111C6.81365 35.976 7.20179 35.3272 7.20179 34.6177V31.5104C7.19441 30.1909 7.28546 28.8591 7.47236 27.5522C7.55261 26.9916 7.1631 26.4722 6.60255 26.3921C6.04269 26.3117 5.52261 26.7013 5.44236 27.2619C5.24111 28.6684 5.14322 30.1016 5.15101 31.5161V34.5402C4.89453 34.6819 4.04249 35.0669 3.62605 35.2842C2.28292 35.9606 1.41736 37.3626 1.41736 38.8683V48.3085C1.41736 49.828 2.29906 51.2422 3.66337 51.9112L10.5031 55.2645C11.222 57.4459 13.278 59.0256 15.6972 59.0256C18.7126 59.0256 21.1657 56.5726 21.1657 53.5572V35.1132C21.1657 32.0979 18.7126 29.6447 15.6972 29.6447C14.4096 29.6447 13.2253 30.0932 12.2899 30.8406C12.3867 27.4511 13.2297 24.1075 14.7488 21.0902C14.8534 21.0915 14.9585 21.0871 15.0642 21.0752C15.8237 20.9904 16.4925 20.5726 16.8991 19.9285C17.9884 18.2033 19.3184 16.6426 20.8519 15.2902C24.7451 11.8568 29.7432 9.96584 34.9253 9.96584C39.8536 9.96584 44.6626 11.6953 48.4665 14.8359C50.2637 16.3197 51.7979 18.0733 53.0266 20.0482C53.4282 20.6935 54.0885 21.1218 54.8384 21.2233C54.9516 21.2386 55.0647 21.2461 55.1772 21.2461C55.2267 21.2461 55.2758 21.2421 55.3249 21.2393C56.7969 24.2166 57.6151 27.5078 57.7103 30.8406C56.7749 30.093 55.5907 29.6446 54.3029 29.6446C51.2876 29.6446 48.8344 32.0977 48.8344 35.1131V38.1883C48.8344 38.7546 49.2935 39.2137 49.8598 39.2137C50.4261 39.2137 50.8852 38.7546 50.8852 38.1883V35.1131C50.8852 33.2285 52.4184 31.6954 54.3029 31.6954C56.1874 31.6954 57.7206 33.2285 57.7206 35.1131V53.5571C57.7206 55.4415 56.1874 56.9747 54.3029 56.9747C52.4184 56.9747 50.8852 55.4415 50.8852 53.5571V43.3584C50.8852 42.7921 50.4261 42.333 49.8598 42.333C49.2935 42.333 48.8344 42.7921 48.8344 43.3584V53.5571C48.8344 56.5724 51.2876 59.0254 54.3029 59.0254C55.5953 59.0254 56.7835 58.5739 57.7206 57.8214V60.264C57.7206 61.0017 57.1203 61.6021 56.3825 61.6021H44.0968C43.7773 60.6561 42.8835 59.9724 41.8311 59.9724H34.0777C32.7585 59.9724 31.6851 61.0457 31.6851 62.3649V67.6074C31.6851 68.9266 32.7585 70 34.0777 70H41.8311C42.8798 70 43.771 69.3208 44.0933 68.3799H50.7505C51.3168 68.3799 51.7759 67.9208 51.7759 67.3545C51.7759 66.7882 51.3168 66.3291 50.7505 66.3291H44.2237V63.653H56.3825C58.2511 63.653 59.7714 62.1327 59.7714 60.2641V55.1298L62.4475 53.8178V62.923C62.4475 64.8011 60.9195 66.3291 59.0414 66.3291H55.8657C55.2994 66.3291 54.8403 66.7882 54.8403 67.3545C54.8403 67.9208 55.2994 68.3799 55.8657 68.3799H59.0414C62.0503 68.3799 64.4983 65.9319 64.4983 62.923V52.8124L66.3368 51.9112C67.7011 51.2422 68.5828 49.8281 68.5828 48.3085V38.8683C68.5828 37.3488 67.7011 35.9347 66.3368 35.2658V35.2658ZM15.6971 31.6956C17.5816 31.6956 19.1148 33.2288 19.1148 35.1133V53.5574C19.1148 55.4418 17.5816 56.9749 15.6971 56.9749C13.8126 56.9749 12.2794 55.4418 12.2794 53.5574V35.1132C12.2794 33.2287 13.8126 31.6956 15.6971 31.6956V31.6956ZM33.7358 67.6074V62.3652C33.7358 62.1768 33.8892 62.0234 34.0776 62.0234H36.9288V67.9492H34.0776C33.8892 67.9492 33.7358 67.7958 33.7358 67.6074V67.6074ZM42.1728 67.6074C42.1728 67.7958 42.0194 67.9492 41.831 67.9492H38.9797V62.0234H41.831C42.0194 62.0234 42.1728 62.1768 42.1728 62.3652V67.6074ZM66.532 48.3086C66.532 49.0515 66.1009 49.7428 65.4339 50.0698L59.7714 52.846C59.7714 50.2309 59.7714 33.6279 59.7714 31.4982C59.7714 27.6235 58.8694 23.7776 57.1581 20.3201L59.3983 18.2529C61.5251 22.2391 62.6458 26.7047 62.649 31.2484C62.6417 32.0999 62.6622 33.2419 62.6477 34.6183C62.6412 35.2971 63.0305 35.9287 63.6396 36.2275L65.434 37.1072C66.101 37.4343 66.5321 38.1255 66.5321 38.8685V48.3086H66.532Z" fill="#FF542F"/>
<path d="M35.8307 18.8425C35.7779 18.2165 35.4084 17.7094 34.8894 17.5506C34.6448 17.4757 34.0113 17.3802 33.411 18.1078C32.8528 18.7844 30.0478 23.7899 29.4912 24.7865C29.366 25.0105 29.37 25.2833 29.5017 25.5036C29.6334 25.724 29.8732 25.8592 30.1323 25.8592H34.3607C34.3553 26.6267 34.3493 27.3672 34.3437 28.0244C34.3401 28.4238 34.6652 28.7504 35.0696 28.7538H35.076C35.4774 28.7538 35.8047 28.4341 35.8082 28.0367C35.8104 27.7799 35.8176 26.9376 35.8254 25.8591H36.3677C36.7721 25.8591 37.1 25.5353 37.1 25.1358C37.1 24.7363 36.7721 24.4125 36.3677 24.4125H35.8352C35.8504 21.9846 35.8605 19.1964 35.8307 18.8425V18.8425ZM34.3706 24.4126H31.3758C32.4754 22.462 33.8516 20.0655 34.38 19.2586C34.3915 20.0524 34.3841 22.2003 34.3706 24.4126V24.4126Z" fill="#FF542F"/>
<path d="M28.2153 28.0071C28.2105 27.6145 27.9016 27.3029 27.5171 27.3052C26.2611 27.3215 24.915 27.3305 23.9934 27.3265C24.511 26.6247 25.3576 25.4601 26.6541 23.5503C27.2799 22.5927 27.7569 21.6875 27.8189 20.6772C27.8189 18.9253 26.4364 17.5 24.7371 17.5C23.2676 17.5 21.9959 18.5776 21.713 20.0622C21.6396 20.4474 21.8831 20.821 22.2567 20.8967C22.6304 20.9722 22.9928 20.7214 23.0662 20.3362C23.2223 19.5166 23.9251 18.9217 24.7371 18.9217C25.6625 18.9217 26.4179 19.6869 26.4394 20.6357C26.3869 21.2763 26.0465 21.9293 25.5242 22.735C24.039 24.9227 23.1523 26.1198 22.6758 26.7629C22.1093 27.5276 21.9384 27.7584 22.0631 28.1764C22.1336 28.4128 22.3087 28.5947 22.5433 28.6753C23.023 28.808 25.9809 28.7341 27.5343 28.7268C27.9152 28.7218 28.2201 28.3997 28.2153 28.0071V28.0071Z" fill="#FF542F"/>
<line x1="28.788" y1="39.5345" x2="41.6307" y2="27.912" stroke="#FF542F" stroke-width="2.5" stroke-linecap="round"/>
<path d="M40.0797 48.3001C39.8865 48.3001 39.7174 48.2284 39.5725 48.085C39.4275 47.9416 39.3551 47.7695 39.3551 47.5687C39.3551 47.4349 39.3986 47.2819 39.4855 47.1098L43.6449 38.5628H39.2391C39.0266 38.5628 38.8478 38.4959 38.7029 38.3621C38.5676 38.2187 38.5 38.0418 38.5 37.8315C38.5 37.6211 38.5676 37.4491 38.7029 37.3152C38.8478 37.1718 39.0266 37.1001 39.2391 37.1001H44.7609C44.9638 37.1001 45.1377 37.1718 45.2826 37.3152C45.4275 37.4586 45.5 37.6307 45.5 37.8315C45.5 37.8984 45.4903 37.9653 45.471 38.0322C45.4517 38.0896 45.4275 38.1517 45.3986 38.2187L40.7609 47.8986C40.6063 48.1662 40.3792 48.3001 40.0797 48.3001Z" fill="#FF542F"/>
</g>
<defs>
<clipPath id="clip0">
<rect width="70" height="70" fill="white"/>
</clipPath>
</defs>
</svg>
