<svg width="70" height="70" viewBox="0 0 70 70" fill="none" xmlns="http://www.w3.org/2000/svg">
<path d="M29.7625 3.5H29.7497C28.7304 3.49846 27.7522 3.86572 27.0302 4.521C26.3083 5.17629 25.9017 6.06591 25.9 6.99417C25.8983 7.92242 26.3016 8.81328 27.0212 9.47075C27.7407 10.1282 28.7176 10.4984 29.7369 10.5H29.751C30.7703 10.5014 31.7484 10.134 32.4703 9.47858C33.1921 8.82319 33.5985 7.93351 33.6 7.00525C33.6015 6.07699 33.1981 5.1862 32.4784 4.52884C31.7588 3.87148 30.7818 3.5014 29.7625 3.5V3.5ZM31.0282 7C31.0282 7.30942 30.8933 7.60616 30.653 7.82496C30.4128 8.04375 30.0869 8.16667 29.7471 8.16667C29.4074 8.16667 29.0815 8.04375 28.8413 7.82496C28.601 7.60616 28.4661 7.30942 28.4661 7C28.4661 6.69058 28.601 6.39384 28.8413 6.17504C29.0815 5.95625 29.4074 5.83334 29.7471 5.83334C29.9168 5.83272 30.0849 5.86342 30.2413 5.92357C30.3976 5.98373 30.5389 6.07209 30.6567 6.18333C30.7755 6.2918 30.8696 6.42066 30.9333 6.56244C30.9971 6.70423 31.0294 6.85612 31.0282 7.00933V7Z" fill="#FF542F"/>
<path d="M12.1016 26.2203C11.6127 26.6801 11.6126 27.4568 12.1013 27.9167L14.8116 30.468C15.0374 30.6805 15.3435 30.7999 15.6628 30.8H15.7098C15.8753 30.7939 16.0377 30.7558 16.1869 30.6879C16.336 30.6201 16.4687 30.524 16.5766 30.4056L22.9621 23.3933C23.4164 22.8943 23.3565 22.1157 22.8311 21.6922V21.6922C22.3487 21.3033 21.6469 21.3573 21.2296 21.8153L15.5918 28.0032L13.6979 26.2205C13.2495 25.7985 12.5501 25.7984 12.1016 26.2203V26.2203Z" fill="#FF542F"/>
<path d="M25.2 25.2H45.4999V27.2999H25.2V25.2Z" fill="#FF542F"/>
<path d="M15.5942 42.6998L13.702 40.9187C13.2527 40.4958 12.5518 40.4958 12.1025 40.9187V40.9187C11.6131 41.3794 11.6131 42.1572 12.1025 42.6179L14.8116 45.1679C15.0374 45.3805 15.3435 45.4999 15.6628 45.5H15.7098C15.8753 45.4939 16.0377 45.4557 16.1869 45.3879C16.336 45.32 16.4687 45.2239 16.5766 45.1056L22.9621 38.0933C23.4164 37.5943 23.3565 36.8156 22.8311 36.3921V36.3921C22.3487 36.0032 21.6469 36.0572 21.2296 36.5152L15.5942 42.6998Z" fill="#FF542F"/>
<path d="M15.5942 55.7999L13.7606 53.9507C13.2878 53.4738 12.5168 53.4738 12.0439 53.9507V53.9507C11.5766 54.4219 11.5766 55.1817 12.0439 55.653L14.8116 58.4443C15.0374 58.672 15.3435 58.8 15.6628 58.8H15.7098C15.8753 58.7936 16.0377 58.7527 16.1869 58.68C16.336 58.6073 16.4687 58.5043 16.5766 58.3775L23.0241 50.7913C23.4536 50.286 23.3952 49.5289 22.8933 49.0954V49.0954C22.3859 48.6571 21.6185 48.7162 21.1841 49.227L15.5942 55.7999Z" fill="#FF542F"/>
<path d="M61.3227 47.2724L68.6184 40.0033C69.0561 39.573 69.4036 39.0605 69.6407 38.4956C69.8779 37.9307 70 37.3246 70 36.7124C70 36.1003 69.8779 35.4942 69.6407 34.9293C69.4036 34.3644 69.0561 33.8519 68.6184 33.4216C67.73 32.5695 66.5441 32.0934 65.3101 32.0934C64.0762 32.0934 62.8903 32.5695 62.0019 33.4216L57.7159 37.6735L57.8096 10.5891C57.8096 10.2802 57.6862 9.98389 57.4666 9.76543C57.247 9.54696 56.9491 9.42423 56.6385 9.42423L45.6072 9.37763C45.1531 8.33897 44.4057 7.45371 43.4557 6.82924C42.5058 6.20478 41.3941 5.86794 40.2555 5.85958H37.5738C37.081 4.17124 36.051 2.68745 34.6384 1.63092C33.2258 0.574396 31.5068 0.00213588 29.7395 3.63777e-05H29.716C27.9539 -0.00520949 26.2374 0.557037 24.8232 1.60272C23.4089 2.6484 22.3729 4.12134 21.87 5.80133L19.1766 5.78968H19.1649C18.0305 5.78951 16.9205 6.11761 15.9702 6.734C15.02 7.35039 14.2705 8.22844 13.8132 9.26114L2.77015 9.21454C2.61769 9.21306 2.4665 9.24221 2.32564 9.30026C2.18478 9.35831 2.05716 9.44406 1.95042 9.55237C1.83977 9.66026 1.75174 9.78892 1.69143 9.93089C1.63113 10.0729 1.59975 10.2253 1.5991 10.3795L1.40002 68.6254C1.40002 68.9343 1.5234 69.2307 1.74302 69.4491C1.96263 69.6676 2.26049 69.7903 2.57108 69.7903L56.4394 70C56.75 70 57.0479 69.8773 57.2675 69.6588C57.4871 69.4403 57.6105 69.144 57.6105 68.8351L57.6573 56.8248L60.6786 59.8419C61.5625 60.7086 62.7517 61.1977 63.9927 61.2049C64.9206 61.2046 65.8276 60.931 66.5993 60.4184C67.371 59.9058 67.9727 59.1773 68.3285 58.3248C68.6843 57.4724 68.7783 56.5341 68.5985 55.6286C68.4188 54.723 67.9733 53.8908 67.3185 53.2368L61.3227 47.2724ZM63.6531 35.0641C64.0984 34.638 64.6923 34.3999 65.3101 34.3999C65.928 34.3999 66.5219 34.638 66.9672 35.0641C67.1861 35.2798 67.3598 35.5366 67.4784 35.8195C67.597 36.1024 67.658 36.4059 67.658 36.7124C67.658 37.019 67.597 37.3225 67.4784 37.6054C67.3598 37.8883 67.1861 38.1451 66.9672 38.3608L58.6879 46.5968L55.3738 43.3001L63.6531 35.0641ZM49.0969 36.7649L45.7829 33.4798C46.6819 33.3518 47.5985 33.4336 48.4602 33.7186C49.322 34.0037 50.1052 34.4843 50.7481 35.1223C51.3044 35.6693 51.7429 36.3232 52.0368 37.0442C52.3307 37.7652 52.474 38.5382 52.4579 39.316C52.4478 40.3153 52.7023 41.2996 53.1956 42.1701L52.8911 42.473C52.6718 42.6929 52.5486 42.9902 52.5486 43.3001C52.5486 43.6099 52.6718 43.9072 52.8911 44.1272L50.5139 46.4803C49.4292 45.5537 48.044 45.0489 46.6143 45.0591H46.5909C45.753 45.0614 44.9244 44.8837 44.1618 44.5382C43.3993 44.1926 42.7207 43.6874 42.1726 43.0569C41.6244 42.4264 41.2196 41.6857 40.9857 40.8852C40.7519 40.0848 40.6945 39.2436 40.8176 38.4191L44.12 41.7158C44.2752 41.8691 44.4702 41.9764 44.6832 42.0258C44.8962 42.0751 45.1188 42.0646 45.3262 41.9954L47.8088 41.1683C47.9809 41.1119 48.1373 41.0161 48.2655 40.8886C48.3936 40.7612 48.4899 40.6056 48.5465 40.4344L49.378 37.9647C49.4476 37.7585 49.4582 37.537 49.4086 37.3251C49.3589 37.1133 49.251 36.9193 49.0969 36.7649V36.7649ZM54.5423 45.7697L56.2052 47.4239L49.5771 54.0057C49.3586 54.226 49.2366 54.5233 49.2375 54.8328V55.8812L44.7406 59.0731L42.8318 57.1742L46.0405 52.701H47.0944C47.4055 52.7019 47.7044 52.5804 47.9259 52.3631L54.5423 45.7697ZM46.0991 11.7075L55.4675 11.7541L55.3621 40.015L54.9756 40.4111C54.8595 40.0656 54.8002 39.7037 54.8 39.3393C54.8314 37.467 54.2062 35.6422 53.0317 34.1787L53.1019 15.2255C53.1034 15.0739 53.0741 14.9235 53.0158 14.7833C52.9574 14.6432 52.8712 14.5163 52.7623 14.4101C52.6539 14.3 52.5245 14.2124 52.3818 14.1525C52.2391 14.0925 52.0858 14.0612 51.9309 14.0606L46.0873 14.0373L46.0991 11.7075ZM15.6517 11.6026C15.6523 11.1444 15.7437 10.6908 15.9206 10.2677C16.0975 9.84466 16.3565 9.46041 16.6828 9.13694C17.009 8.81347 17.3962 8.55713 17.8221 8.38256C18.2479 8.20798 18.7042 8.1186 19.1649 8.11952H19.1766L22.7951 8.13117C23.0716 8.13058 23.3391 8.03347 23.551 7.85677C23.7629 7.68007 23.9056 7.435 23.9545 7.16429C24.1829 5.80988 24.8877 4.58026 25.943 3.69478C26.9983 2.80931 28.3355 2.32557 29.716 2.32987H29.7395C31.1211 2.33246 32.4569 2.82364 33.508 3.71565C34.5592 4.60766 35.2573 5.84238 35.4776 7.19923C35.5222 7.47289 35.6634 7.72175 35.8759 7.90111C36.0884 8.08047 36.3583 8.17856 36.637 8.17777L40.2555 8.18941C41.1877 8.19771 42.0787 8.57213 42.7346 9.2311C43.3904 9.89007 43.7579 10.7802 43.757 11.7075L43.7335 15.2022L15.6283 15.0974L15.6517 11.6026ZM14.4572 17.4156L44.9046 17.5321C45.2152 17.5321 45.513 17.4093 45.7326 17.1909C45.9523 16.9724 46.0756 16.6761 46.0756 16.3671L50.7598 16.3904L50.7013 32.1984C49.5505 31.5369 48.2552 31.1636 46.9271 31.1109C45.599 31.0581 44.2779 31.3274 43.0777 31.8955C42.9082 31.9754 42.7605 32.0945 42.6469 32.243C42.5334 32.3915 42.4573 32.5649 42.4252 32.7487C42.3931 32.9325 42.4058 33.1213 42.4623 33.2992C42.5188 33.4771 42.6174 33.6389 42.7498 33.771L46.9305 37.9065L46.5089 39.1413L45.2676 39.5607L41.0987 35.4019C40.9659 35.2702 40.8032 35.1721 40.6244 35.1159C40.4456 35.0597 40.2558 35.047 40.071 35.079C39.8862 35.1109 39.7119 35.1866 39.5626 35.2995C39.4133 35.4125 39.2935 35.5595 39.2133 35.7281C38.6386 36.9381 38.3731 38.2706 38.4404 39.6073H26.0975V41.9371H38.8854C39.136 42.6803 39.4951 43.3829 39.951 44.0223C40.7085 45.0659 41.7046 45.9153 42.857 46.5007C44.0094 47.086 45.2852 47.3905 46.5792 47.3889C47.4038 47.3694 48.2101 47.6326 48.8627 48.1345L46.6026 50.3711H45.4316C45.2459 50.3728 45.0633 50.418 44.8985 50.503C44.7337 50.588 44.5914 50.7104 44.483 50.8604L43.3588 52.4214H26.0975V54.7512H41.6959L40.3492 56.6267C40.1866 56.8504 40.1091 57.1243 40.1305 57.3995C40.1519 57.6747 40.271 57.9334 40.4663 58.1295L43.7804 61.4262C44.0019 61.6435 44.3007 61.7649 44.6118 61.764C44.8561 61.764 45.094 61.6864 45.291 61.5427L50.631 57.7567L50.5959 62.9872L8.43804 62.8241L8.60199 16.2274L13.2862 16.2507C13.2853 16.5601 13.4074 16.8574 13.6258 17.0777C13.8491 17.2923 14.1468 17.4133 14.4572 17.4156V17.4156ZM55.2684 67.6702L3.74213 67.4605L3.94121 11.5444L13.3096 11.591L13.2979 13.9208L7.43094 13.8975C7.12036 13.8975 6.8225 14.0202 6.60288 14.2387C6.38327 14.4572 6.25989 14.7535 6.25989 15.0624L6.09594 63.989C6.09594 64.298 6.21932 64.5943 6.43893 64.8127C6.65855 65.0312 6.95641 65.1539 7.26699 65.1539L51.7669 65.317C52.0775 65.317 52.3754 65.1943 52.595 64.9758C52.8146 64.7574 52.938 64.4611 52.938 64.1521L52.9848 54.0173H52.8794L53.8631 53.0388L55.3269 54.5066L55.2684 67.6702ZM65.6673 58.1877C65.2183 58.6112 64.6231 58.8472 64.0044 58.8472C63.3857 58.8472 62.7906 58.6112 62.3415 58.1877L55.5143 51.3962L57.8564 49.0664C57.9651 49.1753 58.0948 49.2614 58.2376 49.3194C58.3804 49.3774 58.5336 49.4063 58.6879 49.4042C58.842 49.4051 58.9947 49.3757 59.1374 49.3178C59.2801 49.2598 59.4099 49.1744 59.5193 49.0664L59.6598 48.9266L65.6556 54.891C66.0933 55.3284 66.3399 55.9198 66.3421 56.537C66.3443 57.1541 66.1019 57.7472 65.6673 58.1877V58.1877Z" fill="#FF542F"/>
</svg>
