<svg width="74" height="74" viewBox="0 0 74 74" fill="none" xmlns="http://www.w3.org/2000/svg">
<g clip-path="url(#clip0)">
<path d="M57.361 47.0374C56.7616 47.0374 56.276 47.523 56.276 48.1224V52.3679C54.9513 52.8204 53.9956 54.0767 53.9956 55.5527C53.9956 57.4084 55.5053 58.9181 57.361 58.9181C57.8937 58.9181 58.3975 58.7931 58.8457 58.5719L62.4551 62.1814C62.6671 62.3932 62.9448 62.4991 63.2225 62.4991C63.5001 62.4991 63.7778 62.3932 63.9898 62.1814C64.4135 61.7575 64.4135 61.0706 63.9898 60.6469L60.3803 57.0375C60.6015 56.5893 60.7265 56.0856 60.7265 55.5529C60.7265 54.0769 59.7709 52.8206 58.4461 52.368V48.1225C58.446 47.523 57.9603 47.0374 57.361 47.0374ZM58.5564 55.5527C58.5564 56.2118 58.0201 56.7481 57.361 56.7481C56.7019 56.7481 56.1656 56.2118 56.1656 55.5527C56.1656 54.8936 56.7019 54.3574 57.361 54.3574C58.0201 54.3574 58.5564 54.8936 58.5564 55.5527Z" fill="white"/>
<path d="M27.7856 24.1301C27.2285 23.9082 26.5979 24.1806 26.3764 24.7373L22.6593 34.0832C22.4378 34.64 22.7098 35.2709 23.2665 35.4923C23.3981 35.5447 23.5337 35.5694 23.6672 35.5694C24.0986 35.5694 24.5066 35.3103 24.6758 34.8851L28.3929 25.5392C28.6142 24.9825 28.3424 24.3515 27.7856 24.1301Z" fill="white"/>
<path d="M32.0164 35.4775C32.1585 35.54 32.3066 35.5695 32.4524 35.5695C32.8696 35.5695 33.2676 35.3274 33.4463 34.921L37.5547 25.5751C37.7022 25.2396 37.6703 24.8522 37.4699 24.5453C37.2696 24.2385 36.9278 24.0535 36.5614 24.0535H31.4201C30.8209 24.0535 30.3351 24.5391 30.3351 25.1385C30.3351 25.7378 30.8209 26.2235 31.4201 26.2235H34.8992L31.4599 34.0476C31.2186 34.5961 31.4678 35.2364 32.0164 35.4775Z" fill="white"/>
<path d="M18.3648 35.3122C18.964 35.3122 19.4498 34.8265 19.4498 34.2272V32.2356H20.0357C20.6349 32.2356 21.1207 31.7499 21.1207 31.1506C21.1207 30.5512 20.6349 30.0656 20.0357 30.0656H19.4498V25.1506C19.4498 24.4675 19.0091 23.8809 18.3532 23.6905C17.6976 23.5007 17.012 23.7598 16.6466 24.3365C15.3049 26.4542 12.8292 30.5482 12.8044 30.5892C12.6018 30.9243 12.5955 31.3425 12.7879 31.6835C12.9803 32.0245 13.3414 32.2354 13.733 32.2354H17.2798V34.227C17.2798 34.8265 17.7656 35.3122 18.3648 35.3122ZM15.6611 30.0656C16.1349 29.2875 16.719 28.3317 17.2798 27.4226V30.0656H15.6611Z" fill="white"/>
<path d="M9.37343 29.003C7.89349 31.1176 7.0103 32.2739 6.53579 32.8953C5.94483 33.6692 5.67502 34.0224 5.85962 34.6223C5.96812 34.9753 6.23546 35.2461 6.59293 35.3652C6.73673 35.4132 6.87474 35.4591 8.69957 35.4591C9.41249 35.4591 10.3831 35.452 11.712 35.4353C12.3112 35.4278 12.7907 34.9361 12.7832 34.3369C12.7757 33.7423 12.2915 33.2655 11.6985 33.2655C11.6939 33.2655 11.6893 33.2655 11.6846 33.2656C10.7599 33.2772 9.77965 33.2849 8.96084 33.2867C9.47788 32.5948 10.1917 31.6184 11.1512 30.2474C11.7503 29.3914 12.1412 28.5819 12.3129 27.8415C12.3212 27.806 12.3277 27.77 12.3322 27.7338L12.3783 27.3723C12.3842 27.3269 12.3871 27.2807 12.3871 27.2349C12.3871 25.3181 10.8276 23.7585 8.91078 23.7585C7.25334 23.7585 5.81868 24.9376 5.49954 26.5623C5.3841 27.1503 5.76703 27.7205 6.3551 27.8361C6.94332 27.9514 7.5133 27.5688 7.62889 26.9806C7.74868 26.3711 8.2877 25.9287 8.91078 25.9287C9.6114 25.9287 10.185 26.4831 10.2158 27.1763L10.1872 27.3998C10.0712 27.858 9.79759 28.397 9.37343 29.003Z" fill="white"/>
<path d="M38.6289 61.167H7.49852C4.56033 61.167 2.17 58.7767 2.17 55.8386V46.8663C2.17 46.2669 1.68421 45.7812 1.085 45.7812C0.485791 45.7812 0 46.2669 0 46.8663V55.8386C0 59.9732 3.36379 63.337 7.49852 63.337H38.6289C39.2283 63.337 39.7139 62.8514 39.7139 62.252C39.7139 61.6527 39.2283 61.167 38.6289 61.167Z" fill="white"/>
<path d="M1.085 43.3273C1.68421 43.3273 2.17 42.8416 2.17 42.2423V20.476H50.9787C51.5781 20.476 52.0637 19.9904 52.0637 19.391C52.0637 18.7916 51.5781 18.306 50.9787 18.306H2.17V14.7074C2.17 11.7692 4.56033 9.37903 7.49852 9.37903H15.0535V11.6927C15.0535 13.3666 16.4154 14.7285 18.0893 14.7285C19.7632 14.7285 21.1251 13.3666 21.1251 11.6927V9.37903H42.9149V11.6927C42.9149 13.3666 44.2766 14.7285 45.9505 14.7285C47.6245 14.7285 48.9864 13.3666 48.9864 11.6927V9.37903H56.5413C59.4795 9.37903 61.8698 11.7692 61.8698 14.7074V18.306H55.6026C55.0032 18.306 54.5176 18.7916 54.5176 19.391C54.5176 19.9904 55.0032 20.476 55.6026 20.476H61.8698V36.4602C61.8698 37.0596 62.3555 37.5452 62.9548 37.5452C63.5542 37.5452 64.0398 37.0596 64.0398 36.4602V14.7074C64.0398 10.5728 60.676 7.20903 56.5413 7.20903H48.9864V4.84431C48.9864 3.17037 47.6245 1.80847 45.9505 1.80847C44.2766 1.80847 42.9149 3.17037 42.9149 4.84431V7.20918H21.1251V4.84431C21.1251 3.17037 19.7632 1.80847 18.0893 1.80847C16.4154 1.80847 15.0535 3.17037 15.0535 4.84431V7.20918H7.49852C3.36379 7.20903 0 10.5728 0 14.7074V42.2423C0 42.8416 0.485791 43.3273 1.085 43.3273ZM45.0849 4.84431C45.0849 4.36676 45.4733 3.97847 45.9505 3.97847C46.4281 3.97847 46.8164 4.36691 46.8164 4.84431V11.6928C46.8164 12.1704 46.4279 12.5587 45.9505 12.5587C45.4731 12.5587 45.0849 12.1702 45.0849 11.6928V4.84431ZM17.2235 4.84431C17.2235 4.36676 17.6119 3.97847 18.0893 3.97847C18.5667 3.97847 18.9551 4.36691 18.9551 4.84431V11.6928C18.9551 12.1704 18.5667 12.5587 18.0893 12.5587C17.6119 12.5587 17.2235 12.1702 17.2235 11.6928V4.84431Z" fill="white"/>
<path d="M73.411 51.1539C73.2527 50.5761 72.6565 50.2356 72.0782 50.3936C71.5002 50.5517 71.1597 51.1484 71.3178 51.7264C71.5626 52.6213 71.719 53.5396 71.7881 54.4677H70.0699C69.4706 54.4677 68.9849 54.9533 68.9849 55.5527C68.9849 56.152 69.4706 56.6377 70.0699 56.6377H71.7893C71.5527 59.8127 70.287 62.7053 68.3255 64.9829L67.1147 63.7721C66.6909 63.3483 66.0039 63.3482 65.5803 63.7719C65.1564 64.1956 65.1564 64.8827 65.5802 65.3062L66.791 66.5173C64.5135 68.4788 61.6208 69.7445 58.4458 69.981V68.2614C58.4458 67.662 57.9601 67.1764 57.3608 67.1764C56.7614 67.1764 56.2758 67.662 56.2758 68.2614V69.981C53.1008 69.7445 50.2082 68.4788 47.9307 66.5173L49.1417 65.3062C49.5654 64.8824 49.5654 64.1955 49.1417 63.7718C48.7178 63.3482 48.0309 63.3482 47.6072 63.7718L46.3962 64.9828C44.4348 62.7053 43.169 59.8127 42.9324 56.6377H44.6519C45.2513 56.6377 45.7369 56.152 45.7369 55.5527C45.7369 54.9533 45.2513 54.4677 44.6519 54.4677H42.9324C43.169 51.2927 44.4347 48.3999 46.3962 46.1224L47.6072 47.3334C47.819 47.5452 48.0968 47.6511 48.3744 47.6511C48.652 47.6511 48.9297 47.5452 49.1417 47.3333C49.5654 46.9095 49.5654 46.2225 49.1415 45.7989L47.9307 44.5881C50.2082 42.6265 53.1009 41.3608 56.2759 41.1243V42.8438C56.2759 43.4432 56.7616 43.9288 57.3609 43.9288C57.9603 43.9288 58.4459 43.4432 58.4459 42.8438V41.1255C61.5665 41.3564 64.4777 42.5776 66.7988 44.5803L65.5802 45.7989C65.1564 46.2228 65.1564 46.9097 65.5802 47.3334C65.7921 47.5452 66.0699 47.6511 66.3475 47.6511C66.6251 47.6511 66.9029 47.5452 67.1148 47.3334L68.3309 46.1173C68.7802 46.6412 69.1973 47.1997 69.5753 47.7935C69.8972 48.2989 70.5674 48.4476 71.0732 48.1259C71.5786 47.804 71.7274 47.1335 71.4056 46.628C68.3301 41.7976 63.0797 38.9139 57.3609 38.9139C48.1862 38.9139 40.7219 46.3782 40.7219 55.553C40.7219 64.7277 48.1862 72.1917 57.3609 72.1917C66.5357 72.1917 73.9999 64.7274 73.9999 55.5527C73.9999 54.0629 73.8017 52.5829 73.411 51.1539Z" fill="white"/>
<line x1="8.65002" y1="44.63" x2="35.75" y2="44.63" stroke="white" stroke-width="2.5" stroke-linecap="round"/>
<line x1="8.65002" y1="52.03" x2="25.39" y2="52.03" stroke="white" stroke-width="2.5" stroke-linecap="round"/>
<line x1="43.43" y1="29.83" x2="57.95" y2="29.83" stroke="white" stroke-width="2.5" stroke-linecap="round"/>
<line x1="31.59" y1="52.03" x2="35.75" y2="52.03" stroke="white" stroke-width="2.5" stroke-linecap="round"/>
</g>
<defs>
<clipPath id="clip0">
<rect width="74" height="74" fill="white"/>
</clipPath>
</defs>
</svg>
