<svg width="74" height="74" viewBox="0 0 74 74" fill="none" xmlns="http://www.w3.org/2000/svg">
<g clip-path="url(#clip0)">
<path d="M72.6031 11.2466L73.5774 10.2723C74.1418 9.7079 74.1418 8.79274 73.5774 8.22821C73.013 7.66397 72.0978 7.66397 71.5333 8.22821L70.559 9.20249L69.5853 8.22879C69.3143 7.9578 68.9467 7.80546 68.5634 7.80546H66.9737L59.5916 0.423327C59.3204 0.152334 58.9529 0 58.5696 0H5.20609C2.33603 0 0.00100708 2.33487 0.00100708 5.20509V32.2901C0.00100708 35.1601 2.33603 37.4952 5.20609 37.4952H17.7975L9.33025 45.9626C8.34716 46.9457 7.80575 48.2528 7.80575 49.6431C7.80575 51.0334 8.34716 52.3405 9.33025 53.3237L28.4821 72.4756C29.4652 73.4587 30.7724 74.0001 32.1627 74.0001C33.5531 74.0001 34.8602 73.4587 35.8433 72.4756L50.1874 58.1317C50.752 57.5673 50.752 56.6521 50.1874 56.0876C49.6231 55.5235 48.7079 55.5233 48.1435 56.0876L33.7992 70.4316C33.3622 70.8688 32.7809 71.1094 32.1627 71.1094C31.5446 71.1094 30.9633 70.8688 30.5262 70.4316L11.3742 51.2797C10.9371 50.8426 10.6963 50.2613 10.6963 49.6431C10.6963 49.0248 10.9371 48.4437 11.3742 48.0066L48.6845 10.6963H67.9649L68.5152 11.2467L65.1731 14.5888C64.607 14.3174 63.9735 14.1652 63.305 14.1652C60.9141 14.1652 58.9691 16.1103 58.9691 18.5011C58.9691 20.8919 60.9141 22.837 63.305 22.837C65.6958 22.837 67.6408 20.8919 67.6408 18.5011C67.6408 17.8325 67.4885 17.1989 67.2171 16.6329L70.5592 13.2908L71.1095 13.8412V33.1214L57.3411 46.89C56.7767 47.4544 56.7767 48.3696 57.3411 48.9341C57.9055 49.4983 58.8206 49.4983 59.3852 48.9341L73.577 34.7423C73.8479 34.4712 74.0003 34.1036 74.0003 33.7203V13.2422C74.0003 12.8589 73.8479 12.4914 73.577 12.2203L72.6031 11.2466ZM48.0858 7.80561C47.7026 7.80561 47.3349 7.95794 47.0639 8.22893L30.256 25.0367C26.5045 28.7881 30.256 25.0367 26.5045 28.7881L20.6882 34.6044H5.20609C3.9299 34.6044 2.8916 33.5661 2.8916 32.2899V5.20509C2.8916 3.92889 3.9299 2.89059 5.20609 2.89059H57.9708L62.8858 7.80561H48.0858ZM63.305 19.9461C62.508 19.9461 61.8597 19.2977 61.8597 18.5008C61.8597 17.7039 62.508 17.0555 63.305 17.0555C63.6348 17.0555 63.9383 17.1678 64.1818 17.3545C64.2201 17.4045 64.2609 17.4534 64.3065 17.4991C64.3522 17.5447 64.4011 17.5855 64.4511 17.6238C64.6378 17.8673 64.7501 18.1708 64.7501 18.5006C64.7502 19.2977 64.1019 19.9461 63.305 19.9461Z" fill="white"/>
<path d="M21.3446 10.6593C20.6496 10.2671 19.7679 10.5122 19.3755 11.2074L10.0534 27.7205C9.66098 28.4156 9.90624 29.2971 10.6014 29.6895C10.826 29.8163 11.0699 29.8766 11.3106 29.8766C11.815 29.8766 12.3049 29.6121 12.5705 29.1415L21.8927 12.6284C22.2851 11.9332 22.0398 11.0516 21.3446 10.6593Z" fill="white"/>
<path d="M14.6729 14.3364C14.6729 11.9452 12.7276 10 10.3365 10C7.94539 10 6 11.9452 6 14.3364C6 16.7275 7.94525 18.6729 10.3364 18.6729C12.7275 18.6729 14.6729 16.7275 14.6729 14.3364ZM8.89062 14.3364C8.89062 13.5391 9.53914 12.8906 10.3364 12.8906C11.1336 12.8906 11.7821 13.5391 11.7821 14.3364C11.7821 15.1337 11.1336 15.7823 10.3364 15.7823C9.53914 15.7823 8.89062 15.1337 8.89062 14.3364Z" fill="white"/>
<path d="M27.6729 23.3364C27.6729 20.9452 25.7276 19 23.3365 19C20.9454 19 19 20.9452 19 23.3364C19 25.7275 20.9452 27.6729 23.3364 27.6729C25.7275 27.6729 27.6729 25.7275 27.6729 23.3364ZM21.8906 23.3364C21.8906 22.5391 22.5391 21.8906 23.3364 21.8906C24.1336 21.8906 24.7821 22.5391 24.7821 23.3364C24.7821 24.1337 24.1336 24.7823 23.3364 24.7823C22.5391 24.7823 21.8906 24.1337 21.8906 23.3364Z" fill="white"/>
<path d="M53.7637 51.0651C53.3821 51.0651 53.0107 51.2197 52.7419 51.4887C52.473 51.7574 52.3184 52.1303 52.3184 52.5104C52.3184 52.8906 52.473 53.2635 52.7419 53.5322C53.0107 53.801 53.3821 53.9557 53.7637 53.9557C54.1438 53.9557 54.5167 53.8012 54.7855 53.5322C55.0544 53.2635 55.209 52.8906 55.209 52.5104C55.209 52.1303 55.0544 51.7574 54.7855 51.4887C54.5167 51.2199 54.1438 51.0651 53.7637 51.0651Z" fill="white"/>
<mask id="path-6-outside-1" maskUnits="userSpaceOnUse" x="30" y="31" width="25" height="17" fill="black">
<rect fill="white" x="30" y="31" width="25" height="17"/>
<path d="M36.116 47C35.1492 47 34.2764 46.789 33.4976 46.367C32.7322 45.9322 32.1212 45.344 31.6647 44.6023C31.2216 43.8606 31 43.0294 31 42.1087C31 41.8274 31.094 41.5972 31.282 41.4182C31.47 41.2263 31.7117 41.1304 32.0071 41.1304C32.3025 41.1304 32.5509 41.2263 32.7523 41.4182C32.9538 41.5972 33.0545 41.8274 33.0545 42.1087C33.0545 42.6586 33.1887 43.1573 33.4573 43.6049C33.7259 44.0524 34.0884 44.4041 34.5449 44.6598C35.0149 44.9156 35.5386 45.0435 36.116 45.0435C36.7068 45.0435 37.2305 44.9156 37.6871 44.6598C38.157 44.4041 38.5263 44.0524 38.7949 43.6049C39.0634 43.1573 39.1977 42.6586 39.1977 42.1087C39.1977 41.546 39.0634 41.0473 38.7949 40.6125C38.5263 40.165 38.157 39.8133 37.6871 39.5575C37.2305 39.3018 36.7068 39.1739 36.116 39.1739H32.7523C32.4569 39.1739 32.2152 39.0844 32.0272 38.9054C31.8392 38.7136 31.7452 38.477 31.7452 38.1957V33.0166C31.7452 32.7353 31.8392 32.4987 32.0272 32.3069C32.2152 32.1151 32.4569 32.0192 32.7523 32.0192H39.4797C39.7617 32.0192 40.0034 32.1215 40.2048 32.3261C40.4062 32.5179 40.5069 32.7481 40.5069 33.0166C40.5069 33.2724 40.4062 33.4962 40.2048 33.688C40.0168 33.8798 39.7751 33.9757 39.4797 33.9757H33.7796V37.2174H36.116C37.0962 37.2174 37.969 37.4348 38.7344 37.8696C39.5133 38.2916 40.1242 38.8734 40.5673 39.6151C41.0239 40.344 41.2522 41.1752 41.2522 42.1087C41.2522 43.0294 41.0239 43.8606 40.5673 44.6023C40.1242 45.344 39.5133 45.9322 38.7344 46.367C37.969 46.789 37.0962 47 36.116 47Z"/>
<path d="M49.1861 47C47.6553 47 46.467 46.3414 45.621 45.0243C44.7885 43.6944 44.3722 41.8529 44.3722 39.5C44.3722 37.1343 44.7885 35.2928 45.621 33.9757C46.467 32.6586 47.6553 32 49.1861 32C50.2066 32 51.0727 32.3069 51.7844 32.9207C52.5095 33.5217 53.0601 34.3849 53.436 35.5102C53.812 36.6228 54 37.9527 54 39.5C54 41.0473 53.812 42.3836 53.436 43.509C53.0601 44.6215 52.5095 45.4847 51.7844 46.0985C51.0727 46.6995 50.2066 47 49.1861 47ZM49.1861 45.0051C49.8038 45.0051 50.3141 44.7685 50.7169 44.2954C51.1197 43.8095 51.4219 43.1509 51.6233 42.3197C51.8247 41.4885 51.9254 40.5486 51.9254 39.5C51.9254 38.4514 51.8247 37.5115 51.6233 36.6803C51.4219 35.8491 51.1197 35.1905 50.7169 34.7046C50.3141 34.2187 49.8038 33.9757 49.1861 33.9757C48.5684 33.9757 48.0582 34.2187 47.6553 34.7046C47.2525 35.1777 46.9504 35.8299 46.749 36.6611C46.5476 37.4923 46.4468 38.4386 46.4468 39.5C46.4468 40.5614 46.5476 41.5077 46.749 42.3389C46.9504 43.1701 47.2525 43.8223 47.6553 44.2954C48.0716 44.7685 48.5819 45.0051 49.1861 45.0051Z"/>
</mask>
<path d="M36.116 47C35.1492 47 34.2764 46.789 33.4976 46.367C32.7322 45.9322 32.1212 45.344 31.6647 44.6023C31.2216 43.8606 31 43.0294 31 42.1087C31 41.8274 31.094 41.5972 31.282 41.4182C31.47 41.2263 31.7117 41.1304 32.0071 41.1304C32.3025 41.1304 32.5509 41.2263 32.7523 41.4182C32.9538 41.5972 33.0545 41.8274 33.0545 42.1087C33.0545 42.6586 33.1887 43.1573 33.4573 43.6049C33.7259 44.0524 34.0884 44.4041 34.5449 44.6598C35.0149 44.9156 35.5386 45.0435 36.116 45.0435C36.7068 45.0435 37.2305 44.9156 37.6871 44.6598C38.157 44.4041 38.5263 44.0524 38.7949 43.6049C39.0634 43.1573 39.1977 42.6586 39.1977 42.1087C39.1977 41.546 39.0634 41.0473 38.7949 40.6125C38.5263 40.165 38.157 39.8133 37.6871 39.5575C37.2305 39.3018 36.7068 39.1739 36.116 39.1739H32.7523C32.4569 39.1739 32.2152 39.0844 32.0272 38.9054C31.8392 38.7136 31.7452 38.477 31.7452 38.1957V33.0166C31.7452 32.7353 31.8392 32.4987 32.0272 32.3069C32.2152 32.1151 32.4569 32.0192 32.7523 32.0192H39.4797C39.7617 32.0192 40.0034 32.1215 40.2048 32.3261C40.4062 32.5179 40.5069 32.7481 40.5069 33.0166C40.5069 33.2724 40.4062 33.4962 40.2048 33.688C40.0168 33.8798 39.7751 33.9757 39.4797 33.9757H33.7796V37.2174H36.116C37.0962 37.2174 37.969 37.4348 38.7344 37.8696C39.5133 38.2916 40.1242 38.8734 40.5673 39.6151C41.0239 40.344 41.2522 41.1752 41.2522 42.1087C41.2522 43.0294 41.0239 43.8606 40.5673 44.6023C40.1242 45.344 39.5133 45.9322 38.7344 46.367C37.969 46.789 37.0962 47 36.116 47Z" fill="white"/>
<path d="M49.1861 47C47.6553 47 46.467 46.3414 45.621 45.0243C44.7885 43.6944 44.3722 41.8529 44.3722 39.5C44.3722 37.1343 44.7885 35.2928 45.621 33.9757C46.467 32.6586 47.6553 32 49.1861 32C50.2066 32 51.0727 32.3069 51.7844 32.9207C52.5095 33.5217 53.0601 34.3849 53.436 35.5102C53.812 36.6228 54 37.9527 54 39.5C54 41.0473 53.812 42.3836 53.436 43.509C53.0601 44.6215 52.5095 45.4847 51.7844 46.0985C51.0727 46.6995 50.2066 47 49.1861 47ZM49.1861 45.0051C49.8038 45.0051 50.3141 44.7685 50.7169 44.2954C51.1197 43.8095 51.4219 43.1509 51.6233 42.3197C51.8247 41.4885 51.9254 40.5486 51.9254 39.5C51.9254 38.4514 51.8247 37.5115 51.6233 36.6803C51.4219 35.8491 51.1197 35.1905 50.7169 34.7046C50.3141 34.2187 49.8038 33.9757 49.1861 33.9757C48.5684 33.9757 48.0582 34.2187 47.6553 34.7046C47.2525 35.1777 46.9504 35.8299 46.749 36.6611C46.5476 37.4923 46.4468 38.4386 46.4468 39.5C46.4468 40.5614 46.5476 41.5077 46.749 42.3389C46.9504 43.1701 47.2525 43.8223 47.6553 44.2954C48.0716 44.7685 48.5819 45.0051 49.1861 45.0051Z" fill="white"/>
<path d="M33.4976 46.367L33.3494 46.6279L33.3547 46.6308L33.4976 46.367ZM31.6647 44.6023L31.4071 44.7562L31.4092 44.7596L31.6647 44.6023ZM31.282 41.4182L31.489 41.6355L31.4962 41.6281L31.282 41.4182ZM32.7523 41.4182L32.5453 41.6355L32.553 41.6424L32.7523 41.4182ZM33.4573 43.6049L33.2001 43.7592L33.2001 43.7592L33.4573 43.6049ZM34.5449 44.6598L34.3983 44.9216L34.4016 44.9234L34.5449 44.6598ZM37.6871 44.6598L37.5437 44.3963L37.5404 44.3981L37.6871 44.6598ZM38.7949 43.6049L39.0521 43.7592L39.0521 43.7592L38.7949 43.6049ZM38.7949 40.6125L38.5376 40.7669L38.5396 40.7702L38.7949 40.6125ZM37.6871 39.5575L37.5404 39.8193L37.5437 39.8211L37.6871 39.5575ZM32.0272 38.9054L31.8128 39.1155L31.8203 39.1226L32.0272 38.9054ZM32.0272 32.3069L31.813 32.0969L31.813 32.0969L32.0272 32.3069ZM40.2048 32.3261L39.9909 32.5367L39.9979 32.5433L40.2048 32.3261ZM40.2048 33.688L39.9978 33.4706L39.9905 33.478L40.2048 33.688ZM33.7796 33.9757V33.6757H33.4796V33.9757H33.7796ZM33.7796 37.2174H33.4796V37.5174H33.7796V37.2174ZM38.7344 37.8696L38.5862 38.1305L38.5915 38.1333L38.7344 37.8696ZM40.5673 39.6151L40.3097 39.769L40.3131 39.7743L40.5673 39.6151ZM40.5673 44.6023L40.3118 44.445L40.3098 44.4484L40.5673 44.6023ZM38.7344 46.367L38.8793 46.6297L38.8807 46.629L38.7344 46.367ZM45.621 45.0243L45.3667 45.1835L45.3686 45.1864L45.621 45.0243ZM45.621 33.9757L45.3686 33.8136L45.3674 33.8154L45.621 33.9757ZM51.7844 32.9207L51.5884 33.1479L51.593 33.1517L51.7844 32.9207ZM53.436 35.5102L53.1515 35.6053L53.1518 35.6063L53.436 35.5102ZM53.436 43.509L53.7202 43.605L53.7206 43.604L53.436 43.509ZM51.7844 46.0985L51.978 46.3277L51.9782 46.3274L51.7844 46.0985ZM50.7169 44.2954L50.9453 44.4899L50.9479 44.4869L50.7169 44.2954ZM51.6233 42.3197L51.9148 42.3903L51.9148 42.3903L51.6233 42.3197ZM51.6233 36.6803L51.9148 36.6097L51.9148 36.6097L51.6233 36.6803ZM47.6553 34.7046L47.8838 34.8991L47.8863 34.8961L47.6553 34.7046ZM47.6553 44.2954L47.4269 44.4899L47.4301 44.4936L47.6553 44.2954ZM36.116 46.7C35.1944 46.7 34.3715 46.4993 33.6405 46.1032L33.3547 46.6308C34.1813 47.0787 35.104 47.3 36.116 47.3V46.7ZM33.6458 46.1062C32.9238 45.696 32.3499 45.1432 31.9202 44.445L31.4092 44.7596C31.8925 45.5447 32.5406 46.1684 33.3494 46.6279L33.6458 46.1062ZM31.9222 44.4484C31.5087 43.7563 31.3 42.9789 31.3 42.1087H30.7C30.7 43.0799 30.9344 43.9649 31.4071 44.7562L31.9222 44.4484ZM31.3 42.1087C31.3 41.9018 31.3657 41.7527 31.4889 41.6354L31.0751 41.2009C30.8223 41.4416 30.7 41.7529 30.7 42.1087H31.3ZM31.4962 41.6281C31.6219 41.4999 31.7834 41.4304 32.0071 41.4304V40.8304C31.6399 40.8304 31.3181 40.9527 31.0677 41.2082L31.4962 41.6281ZM32.0071 41.4304C32.2307 41.4304 32.4035 41.5002 32.5454 41.6354L32.9592 41.2009C32.6983 40.9524 32.3743 40.8304 32.0071 40.8304V41.4304ZM32.553 41.6424C32.6873 41.7617 32.7545 41.9088 32.7545 42.1087H33.3545C33.3545 41.746 33.2202 41.4327 32.9516 41.1939L32.553 41.6424ZM32.7545 42.1087C32.7545 42.7099 32.902 43.2625 33.2001 43.7592L33.7145 43.4505C33.4755 43.0521 33.3545 42.6072 33.3545 42.1087H32.7545ZM33.2001 43.7592C33.4956 44.2517 33.8963 44.6403 34.3983 44.9216L34.6916 44.3981C34.2805 44.1678 33.9561 43.8531 33.7145 43.4505L33.2001 43.7592ZM34.4016 44.9234C34.919 45.2049 35.4926 45.3435 36.116 45.3435V44.7435C35.5846 44.7435 35.1109 44.6263 34.6883 44.3963L34.4016 44.9234ZM36.116 45.3435C36.7514 45.3435 37.3268 45.2055 37.8337 44.9216L37.5404 44.3981C37.1342 44.6257 36.6622 44.7435 36.116 44.7435V45.3435ZM37.8305 44.9234C38.3462 44.6427 38.7553 44.2539 39.0521 43.7592L38.5376 43.4505C38.2973 43.851 37.9679 44.1655 37.5437 44.3963L37.8305 44.9234ZM39.0521 43.7592C39.3502 43.2625 39.4977 42.7099 39.4977 42.1087H38.8977C38.8977 42.6072 38.7767 43.0521 38.5376 43.4505L39.0521 43.7592ZM39.4977 42.1087C39.4977 41.4962 39.3508 40.9418 39.0501 40.4549L38.5396 40.7702C38.776 41.1529 38.8977 41.5959 38.8977 42.1087H39.4977ZM39.0521 40.4582C38.7553 39.9635 38.3462 39.5747 37.8305 39.294L37.5437 39.8211C37.9679 40.0519 38.2973 40.3664 38.5376 40.7669L39.0521 40.4582ZM37.8337 39.2958C37.3268 39.0119 36.7514 38.8739 36.116 38.8739V39.4739C36.6622 39.4739 37.1342 39.5917 37.5404 39.8193L37.8337 39.2958ZM36.116 38.8739H32.7523V39.4739H36.116V38.8739ZM32.7523 38.8739C32.5225 38.8739 32.3585 38.8066 32.2341 38.6881L31.8203 39.1226C32.0719 39.3622 32.3914 39.4739 32.7523 39.4739V38.8739ZM32.2415 38.6954C32.1113 38.5625 32.0452 38.4026 32.0452 38.1957H31.4452C31.4452 38.5514 31.5672 38.8646 31.813 39.1154L32.2415 38.6954ZM32.0452 38.1957V33.0166H31.4452V38.1957H32.0452ZM32.0452 33.0166C32.0452 32.8097 32.1113 32.6497 32.2415 32.5169L31.813 32.0969C31.5672 32.3477 31.4452 32.6609 31.4452 33.0166H32.0452ZM32.2415 32.5169C32.3671 32.3887 32.5287 32.3192 32.7523 32.3192V31.7192C32.3852 31.7192 32.0633 31.8415 31.813 32.0969L32.2415 32.5169ZM32.7523 32.3192H39.4797V31.7192H32.7523V32.3192ZM39.4797 32.3192C39.6797 32.3192 39.8448 32.3881 39.991 32.5365L40.4186 32.1156C40.1619 31.8549 39.8437 31.7192 39.4797 31.7192V32.3192ZM39.9979 32.5433C40.1422 32.6808 40.2069 32.8334 40.2069 33.0166H40.8069C40.8069 32.6627 40.6702 32.355 40.4117 32.1088L39.9979 32.5433ZM40.2069 33.0166C40.2069 33.1826 40.1456 33.33 39.9979 33.4707L40.4117 33.9052C40.6668 33.6623 40.8069 33.3621 40.8069 33.0166H40.2069ZM39.9905 33.478C39.8649 33.6062 39.7034 33.6757 39.4797 33.6757V34.2757C39.8468 34.2757 40.1687 34.1534 40.419 33.898L39.9905 33.478ZM39.4797 33.6757H33.7796V34.2757H39.4797V33.6757ZM33.4796 33.9757V37.2174H34.0796V33.9757H33.4796ZM33.7796 37.5174H36.116V36.9174H33.7796V37.5174ZM36.116 37.5174C37.0503 37.5174 37.871 37.7241 38.5863 38.1304L38.8826 37.6087C38.0671 37.1454 37.1422 36.9174 36.116 36.9174V37.5174ZM38.5915 38.1333C39.3242 38.5303 39.895 39.0747 40.3098 39.769L40.8249 39.4612C40.3534 38.6721 39.7023 38.0528 38.8774 37.6058L38.5915 38.1333ZM40.3131 39.7743C40.7372 40.4514 40.9522 41.2265 40.9522 42.1087H41.5522C41.5522 41.1239 41.3106 40.2365 40.8216 39.4558L40.3131 39.7743ZM40.9522 42.1087C40.9522 42.9772 40.7376 43.7534 40.3119 44.445L40.8228 44.7596C41.3102 43.9678 41.5522 43.0816 41.5522 42.1087H40.9522ZM40.3098 44.4484C39.8946 45.1435 39.3226 45.6951 38.5882 46.1051L38.8807 46.629C39.7039 46.1694 40.3539 45.5445 40.8249 44.7562L40.3098 44.4484ZM38.5896 46.1043C37.8737 46.499 37.0518 46.7 36.116 46.7V47.3C37.1406 47.3 38.0644 47.079 38.8793 46.6297L38.5896 46.1043ZM49.1861 46.7C47.7602 46.7 46.6657 46.0957 45.8735 44.8622L45.3686 45.1864C46.2682 46.5871 47.5505 47.3 49.1861 47.3V46.7ZM45.8753 44.8651C45.0841 43.6011 44.6722 41.8229 44.6722 39.5H44.0722C44.0722 41.883 44.493 43.7876 45.3667 45.1835L45.8753 44.8651ZM44.6722 39.5C44.6722 37.1637 45.0843 35.3864 45.8746 34.136L45.3674 33.8154C44.4927 35.1993 44.0722 37.1048 44.0722 39.5H44.6722ZM45.8735 34.1378C46.6657 32.9043 47.7602 32.3 49.1861 32.3V31.7C47.5505 31.7 46.2682 32.4129 45.3686 33.8136L45.8735 34.1378ZM49.1861 32.3C50.1414 32.3 50.9361 32.5852 51.5885 33.1479L51.9803 32.6935C51.2094 32.0286 50.2719 31.7 49.1861 31.7V32.3ZM51.593 33.1517C52.2651 33.7088 52.7887 34.5194 53.1515 35.6053L53.7206 35.4152C53.3314 34.2504 52.754 33.3347 51.9759 32.6897L51.593 33.1517ZM53.1518 35.6063C53.5146 36.6798 53.7 37.9756 53.7 39.5H54.3C54.3 37.9298 54.1094 36.5657 53.7202 35.4142L53.1518 35.6063ZM53.7 39.5C53.7 41.0243 53.5147 42.3269 53.1515 43.4139L53.7206 43.604C54.1094 42.4403 54.3 41.0704 54.3 39.5H53.7ZM53.1518 43.4129C52.7892 44.4859 52.2652 45.2984 51.5906 45.8695L51.9782 46.3274C52.7538 45.6709 53.3309 44.7571 53.7202 43.605L53.1518 43.4129ZM51.5908 45.8693C50.9386 46.4201 50.143 46.7 49.1861 46.7V47.3C50.2702 47.3 51.2069 46.9789 51.978 46.3277L51.5908 45.8693ZM49.1861 45.3051C49.8923 45.3051 50.4859 45.0295 50.9453 44.4899L50.4885 44.1009C50.1422 44.5076 49.7153 44.7051 49.1861 44.7051V45.3051ZM50.9479 44.4869C51.3883 43.9556 51.7063 43.251 51.9148 42.3903L51.3317 42.249C51.1374 43.0508 50.8512 43.6633 50.4859 44.1039L50.9479 44.4869ZM51.9148 42.3903C52.123 41.5315 52.2254 40.5673 52.2254 39.5H51.6254C51.6254 40.5299 51.5264 41.4455 51.3317 42.249L51.9148 42.3903ZM52.2254 39.5C52.2254 38.4327 52.123 37.4685 51.9148 36.6097L51.3317 36.751C51.5264 37.5545 51.6254 38.4701 51.6254 39.5H52.2254ZM51.9148 36.6097C51.7063 35.749 51.3883 35.0444 50.9479 34.5131L50.4859 34.8961C50.8512 35.3367 51.1374 35.9492 51.3317 36.751L51.9148 36.6097ZM50.9479 34.5131C50.4895 33.9602 49.8953 33.6757 49.1861 33.6757V34.2757C49.7123 34.2757 50.1387 34.4771 50.4859 34.8961L50.9479 34.5131ZM49.1861 33.6757C48.4769 33.6757 47.8828 33.9602 47.4244 34.5131L47.8863 34.8961C48.2336 34.4771 48.66 34.2757 49.1861 34.2757V33.6757ZM47.4269 34.5101C46.9844 35.0299 46.6659 35.7299 46.4574 36.5905L47.0405 36.7318C47.2348 35.93 47.5206 35.3256 47.8838 34.8991L47.4269 34.5101ZM46.4574 36.5905C46.2492 37.4496 46.1468 38.4203 46.1468 39.5H46.7468C46.7468 38.457 46.8459 37.5351 47.0405 36.7318L46.4574 36.5905ZM46.1468 39.5C46.1468 40.5797 46.2492 41.5504 46.4574 42.4095L47.0405 42.2682C46.8459 41.4649 46.7468 40.543 46.7468 39.5H46.1468ZM46.4574 42.4095C46.6659 43.2701 46.9844 43.9701 47.4269 44.4899L47.8838 44.1009C47.5206 43.6744 47.2348 43.07 47.0405 42.2682L46.4574 42.4095ZM47.4301 44.4936C47.9005 45.0283 48.4915 45.3051 49.1861 45.3051V44.7051C48.6722 44.7051 48.2427 44.5088 47.8806 44.0972L47.4301 44.4936Z" fill="white" mask="url(#path-6-outside-1)"/>
</g>
<defs>
<clipPath id="clip0">
<rect width="74" height="74" fill="white"/>
</clipPath>
</defs>
</svg>
