<svg width="74" height="74" viewBox="0 0 74 74" fill="none" xmlns="http://www.w3.org/2000/svg">
<g clip-path="url(#clip0)">
<path d="M37.8168 15.4998H33.7468C33.1482 15.4998 32.6628 15.985 32.6628 16.5838C32.6628 17.1826 33.1482 17.6678 33.7468 17.6678H37.8168C39.3958 17.6678 40.6803 16.3832 40.6803 14.8043V10.5786C40.6803 8.99956 39.3956 7.71509 37.8168 7.71509H13.3941C11.8151 7.71509 10.5306 8.99971 10.5306 10.5786V14.8043C10.5306 16.3834 11.8152 17.6678 13.3941 17.6678H28.6641C29.2628 17.6678 29.7481 17.1826 29.7481 16.5838C29.7481 15.985 29.2628 15.4998 28.6641 15.4998H13.3941C13.0105 15.4998 12.6986 15.1878 12.6986 14.8043V10.5786C12.6986 10.1951 13.0107 9.8831 13.3941 9.8831H37.8168C38.2002 9.8831 38.5123 10.1951 38.5123 10.5786V14.8043C38.5123 15.1878 38.2002 15.4998 37.8168 15.4998Z" fill="white"/>
<path d="M44.1648 21.3745H7.04575C6.44709 21.3745 5.96174 21.8597 5.96174 22.4585C5.96174 23.0573 6.44709 23.5425 7.04575 23.5425H44.1648C44.7636 23.5425 45.2488 23.0573 45.2488 22.4585C45.2488 21.8597 44.7636 21.3745 44.1648 21.3745Z" fill="white"/>
<path d="M45.2488 28.3332C45.2488 27.7343 44.7636 27.2491 44.1648 27.2491H7.04575C6.44709 27.2491 5.96174 27.7343 5.96174 28.3332C5.96174 28.932 6.44709 29.4172 7.04575 29.4172H44.1648C44.7636 29.4172 45.2488 28.932 45.2488 28.3332Z" fill="white"/>
<path d="M36.2854 34.2079C36.2854 33.6091 35.8001 33.1239 35.2014 33.1239H7.04575C6.44709 33.1239 5.96174 33.6091 5.96174 34.2079C5.96174 34.8067 6.44709 35.2919 7.04575 35.2919H35.2014C35.8001 35.2919 36.2854 34.8066 36.2854 34.2079Z" fill="white"/>
<path d="M19.7666 44.3479C20.3653 44.3479 20.8506 43.8627 20.8506 43.2639C20.8506 42.6651 20.3653 42.1799 19.7666 42.1799H8.93612C8.33746 42.1799 7.85211 42.6651 7.85211 43.2639C7.85211 43.8627 8.33746 44.3479 8.93612 44.3479H19.7666Z" fill="white"/>
<path d="M16.28 60.68C16.7082 60.68 17.5137 60.5308 17.5137 59.57C17.5137 58.5668 16.7276 58.46 16.28 58.46H12.7037C12.431 58.46 11.5937 58.6092 11.5937 59.57C11.5937 60.5308 12.431 60.68 12.7037 60.68H16.28Z" fill="white"/>
<path d="M29.1363 63.165C29.844 62.4573 30.7849 62.0675 31.7856 62.0675C32.7864 62.0675 33.7273 62.4573 34.435 63.165C35.5521 64.2822 37.0374 64.8975 38.6173 64.8975C40.1972 64.8975 41.6826 64.2822 42.7999 63.1651C43.2232 62.7416 43.2232 62.0554 42.7999 61.632C42.3764 61.2088 41.6901 61.2088 41.2668 61.632C40.5592 62.3397 39.6182 62.7296 38.6175 62.7296C37.6167 62.7296 36.6758 62.3398 35.9682 61.6322C34.8511 60.5149 33.3657 59.8997 31.7858 59.8997C30.2059 59.8997 28.7205 60.5149 27.6034 61.6322C27.1801 62.0555 27.1801 62.7419 27.6034 63.1651C28.0266 63.5882 28.713 63.5883 29.1363 63.165V63.165Z" fill="white"/>
<path d="M73.1566 16.4552L70.9565 14.255C69.8319 13.1306 68.0023 13.1305 66.8772 14.2551L36.036 45.0967C35.963 45.1857 35.9507 45.1672 35.8348 45.3746L32.6388 51.7039C32.3631 52.2501 32.3183 52.8486 32.485 53.3938L31.0686 54.8102C30.6453 55.2337 30.6453 55.9199 31.0686 56.3433C31.2802 56.5549 31.5577 56.6607 31.8351 56.6607C32.1124 56.6607 32.3899 56.5549 32.6015 56.3433L34.0171 54.9277C34.2277 54.9922 34.4462 55.025 34.6666 55.025C35.0171 55.025 35.3724 54.9423 35.7079 54.7729L42.0372 51.5771C42.0854 51.5497 42.1898 51.4973 42.3151 51.3759L49.0429 44.6482V68.9647C49.0429 70.2057 48.0333 71.2153 46.7923 71.2153H4.41711C3.177 71.2153 2.16801 70.2057 2.16801 68.9647V5.03368C2.16801 3.79358 3.17686 2.78459 4.41711 2.78459H46.7923C48.0333 2.78459 49.0429 3.79344 49.0429 5.03368V26.7202C49.0429 27.319 49.5281 27.8042 50.1269 27.8042C50.7257 27.8042 51.2109 27.319 51.2109 26.7202V5.03368C51.2109 2.598 49.2287 0.616577 46.7923 0.616577H4.41711C1.98142 0.616722 0 2.59814 0 5.03368V68.9647C0 71.4011 1.98142 73.3833 4.41711 73.3833H46.7923C49.2287 73.3833 51.2109 71.4011 51.2109 68.9647V42.4802L69.7984 23.8926C70.1304 24.6837 69.9879 25.9661 69.1948 26.7454L60.1773 35.7629C59.754 36.1864 59.754 36.8727 60.1773 37.296C60.3891 37.5076 60.6666 37.6134 60.9439 37.6134C61.2213 37.6134 61.4988 37.5076 61.7106 37.296L70.7279 28.2785C72.2128 26.8242 72.649 24.2106 71.4079 22.2832L73.1569 20.5342C74.2813 19.4096 74.2813 17.5797 73.1566 16.4552V16.4552ZM34.7305 52.8376C34.7175 52.8441 34.7018 52.8506 34.6844 52.8531C34.6653 52.8305 34.6458 52.8081 34.6246 52.7869C34.6033 52.7656 34.5809 52.7463 34.5585 52.7272C34.561 52.7098 34.5675 52.6941 34.574 52.6811L37.0948 47.6887L39.7227 50.3168L34.7305 52.8376ZM41.5485 49.0764L38.3355 45.8633L65.2152 18.9835L68.4284 22.1967L41.5485 49.0764ZM71.6236 19.0012L69.9614 20.6635L66.7484 17.4503L68.4106 15.7882C68.6901 15.5086 69.1447 15.5088 69.4239 15.788L71.6239 17.9883C71.7593 18.1236 71.8337 18.3035 71.8337 18.4949C71.8334 18.6859 71.7589 18.8659 71.6236 19.0012Z" fill="white"/>
<path d="M15.2098 51.0897L16.5174 52.0696C17.0278 52.4521 17.6262 52.6999 18.2575 52.7904L19.875 53.0221C20.4467 53.104 20.8959 53.5532 20.9778 54.1249L21.2096 55.7425C21.3 56.3738 21.5479 56.9722 21.9303 57.4825L22.9102 58.7901C23.2566 59.2523 23.2566 59.8876 22.9102 60.3498L21.9303 61.6574C21.5479 62.1677 21.3 62.7661 21.2096 63.3975L20.9778 65.015C20.8959 65.5867 20.4467 66.0359 19.875 66.1178L18.2575 66.3495C17.6262 66.44 17.0278 66.6878 16.5174 67.0703L15.2098 68.0502C14.7476 68.3965 14.1124 68.3965 13.6502 68.0502L12.3426 67.0703C11.8322 66.6878 11.2338 66.44 10.6025 66.3495L8.98499 66.1178C8.41326 66.0359 7.96406 65.5867 7.88215 65.015L7.65042 63.3975C7.55998 62.7661 7.31211 62.1677 6.92966 61.6574L5.94977 60.3498C5.60341 59.8876 5.60341 59.2523 5.94977 58.7901L6.92966 57.4825C7.31211 56.9722 7.55998 56.3738 7.65042 55.7425L7.88215 54.1249C7.96406 53.5532 8.41326 53.104 8.98499 53.0221L10.6025 52.7904C11.2338 52.6999 11.8322 52.4521 12.3426 52.0696L13.6502 51.0897C14.1124 50.7434 14.7476 50.7434 15.2098 51.0897Z" stroke="white" stroke-width="2.5"/>
</g>
<defs>
<clipPath id="clip0">
<rect width="74" height="74" fill="white"/>
</clipPath>
</defs>
</svg>
