<svg width="74" height="74" viewBox="0 0 74 74" fill="none" xmlns="http://www.w3.org/2000/svg">
<path d="M57.016 53.5391C54.6659 53.5391 52.7539 55.4516 52.7539 57.8027C52.7539 60.1538 54.6659 62.0664 57.016 62.0664C59.3679 62.0664 61.2813 60.1538 61.2813 57.8027C61.2813 55.4516 59.3679 53.5391 57.016 53.5391ZM57.016 59.8984C55.8613 59.8984 54.9219 58.9583 54.9219 57.8027C54.9219 56.6472 55.8613 55.707 57.016 55.707C58.1724 55.707 59.1133 56.6472 59.1133 57.8027C59.1133 58.9583 58.1725 59.8984 57.016 59.8984Z" fill="white"/>
<path d="M16.9808 53.5391C14.6307 53.5391 12.7187 55.4516 12.7187 57.8027C12.7187 60.1538 14.6307 62.0664 16.9808 62.0664C19.3328 62.0664 21.2461 60.1538 21.2461 57.8027C21.2461 55.4516 19.3328 53.5391 16.9808 53.5391ZM16.9808 59.8984C15.8261 59.8984 14.8867 58.9583 14.8867 57.8027C14.8867 56.6472 15.8261 55.707 16.9808 55.707C18.1372 55.707 19.0781 56.6472 19.0781 57.8027C19.0781 58.9583 18.1373 59.8984 16.9808 59.8984Z" fill="white"/>
<path d="M40.3965 45.626C39.7978 45.626 39.3125 46.1112 39.3125 46.71V48.8779C39.3125 49.4767 39.7978 49.9619 40.3965 49.9619C40.9951 49.9619 41.4805 49.4767 41.4805 48.8779V46.71C41.4805 46.1112 40.9951 45.626 40.3965 45.626Z" fill="white"/>
<path d="M68.9034 37.9846L63.4057 36.8067L56.3244 27.8962C55.3699 26.695 53.4932 25.7891 51.959 25.7891H45.8164V8.08398C45.8164 7.48519 45.3311 7 44.7324 7H1.08398C0.485336 7 0 7.48519 0 8.08398V57.8027C0 58.4015 0.485336 58.8867 1.08398 58.8867H8.01657C8.55408 63.3581 12.3686 66.8359 16.9824 66.8359C21.5963 66.8359 25.4108 63.3581 25.9483 58.8867H48.0517C48.5892 63.3581 52.4037 66.8359 57.0176 66.8359C61.6315 66.8359 65.4459 63.3581 65.9834 58.8867H70.748C72.5412 58.8867 74 57.4278 74 55.6348V44.2891C74 41.4149 71.7137 38.5869 68.9034 37.9846ZM16.9824 64.668C13.197 64.668 10.1172 61.5882 10.1172 57.8027C10.1172 54.0173 13.197 50.9375 16.9824 50.9375C20.7678 50.9375 23.8477 54.0173 23.8477 57.8027C23.8477 61.5882 20.7678 64.668 16.9824 64.668ZM43.6484 56.7188H30.3516V38.8691H40.3965C40.9951 38.8691 41.4805 38.3839 41.4805 37.7852C41.4805 37.1864 40.9951 36.7012 40.3965 36.7012H5.41992C4.82127 36.7012 4.33594 37.1864 4.33594 37.7852C4.33594 38.3839 4.82127 38.8691 5.41992 38.8691H28.1836V56.7188H25.9483C25.4108 52.2474 21.5963 48.7695 16.9824 48.7695C12.3686 48.7695 8.55408 52.2474 8.01657 56.7188H2.16797V9.16797H43.6484V56.7188ZM45.8164 27.957H51.959C52.8198 27.957 54.0915 28.5709 54.6272 29.2448L60.5528 36.7012H45.8164V27.957ZM57.0176 64.668C53.2322 64.668 50.1523 61.5882 50.1523 57.8027C50.1523 54.0173 53.2322 50.9375 57.0176 50.9375C60.803 50.9375 63.8828 54.0173 63.8828 57.8027C63.8828 61.5882 60.803 64.668 57.0176 64.668ZM71.832 55.6348C71.832 56.2325 71.3458 56.7188 70.748 56.7188H65.9834C65.8259 55.4083 65.3888 54.1827 64.7303 53.1055H71.832V55.6348ZM71.832 50.9375H62.8788C61.2998 49.5874 59.253 48.7695 57.0176 48.7695C52.4037 48.7695 48.5892 52.2474 48.0517 56.7188H45.8164V38.8691H62.6836L68.4491 40.1046C70.2829 40.4974 71.832 42.4136 71.832 44.2891V50.9375Z" fill="white"/>
<path d="M27.606 30.7438L18.4106 21.5484C20.1803 19.1847 19.9924 15.8092 17.8447 13.6616L17.2347 13.0515L17.438 12.8482C17.775 12.5112 17.7749 11.9649 17.438 11.628C17.1011 11.2911 16.5549 11.291 16.2179 11.628L7.27008 20.5758C6.93307 20.9128 6.93315 21.459 7.27008 21.796C7.607 22.1329 8.15322 22.133 8.49023 21.796L8.69359 21.5926L9.30366 22.2027C11.4513 24.3503 14.8266 24.5381 17.1904 22.7685L26.3858 31.9639C26.7227 32.3008 27.269 32.3009 27.606 31.9639C27.943 31.6269 27.9429 31.0807 27.606 30.7438ZM10.5238 20.9825L9.91374 20.3725L16.0145 14.2717L16.6246 14.8818C18.3066 16.5638 18.3066 19.3005 16.6246 20.9825C14.9426 22.6645 12.2058 22.6645 10.5238 20.9825Z" fill="white"/>
<path d="M29.1217 21.6394L19.5016 31.2594" stroke="white" stroke-width="1.8" stroke-linecap="round"/>
<path d="M34.6364 13.2101L32.0243 15.8222C31.3279 16.5186 31.3279 17.6477 32.0244 18.3441L32.3387 18.6584C33.0351 19.3548 34.1642 19.3548 34.8606 18.6584L37.4727 16.0463C38.0844 17.7273 37.7155 19.6849 36.3676 21.0328C34.5126 22.8878 31.5051 22.8878 29.6501 21.0328C27.7951 19.1778 27.7951 16.1703 29.6501 14.3153C30.9979 12.9675 32.9554 12.5985 34.6364 13.2101Z" stroke="white" stroke-width="1.6"/>
</svg>
